<?xml version="1.0" encoding="UTF-8" standalone="no"?>
<!-- Created with Inkscape (http://www.inkscape.org/) -->

<svg
   xmlns:dc="http://purl.org/dc/elements/1.1/"
   xmlns:cc="http://creativecommons.org/ns#"
   xmlns:rdf="http://www.w3.org/1999/02/22-rdf-syntax-ns#"
   xmlns:svg="http://www.w3.org/2000/svg"
   xmlns="http://www.w3.org/2000/svg"
   xmlns:sodipodi="http://sodipodi.sourceforge.net/DTD/sodipodi-0.dtd"
   xmlns:inkscape="http://www.inkscape.org/namespaces/inkscape"
   width="210mm"
   height="297mm"
   viewBox="0 0 210 297"
   version="1.1"
   id="svg8"
   inkscape:version="0.92.4 (5da689c313, 2019-01-14)"
   sodipodi:docname="drawing.svg">
  <defs
     id="defs2" />
  <sodipodi:namedview
     id="base"
     pagecolor="#ffffff"
     bordercolor="#666666"
     borderopacity="1.0"
     inkscape:pageopacity="0.0"
     inkscape:pageshadow="2"
     inkscape:zoom="0.49497475"
     inkscape:cx="-88.571429"
     inkscape:cy="560"
     inkscape:document-units="mm"
     inkscape:current-layer="layer1"
     showgrid="false"
     inkscape:window-width="1920"
     inkscape:window-height="986"
     inkscape:window-x="-11"
     inkscape:window-y="-11"
     inkscape:window-maximized="1" />
  <metadata
     id="metadata5">
    <rdf:RDF>
      <cc:Work
         rdf:about="">
        <dc:format>image/svg+xml</dc:format>
        <dc:type
           rdf:resource="http://purl.org/dc/dcmitype/StillImage" />
        <dc:title />
      </cc:Work>
    </rdf:RDF>
  </metadata>
  <g
     inkscape:label="Layer 1"
     inkscape:groupmode="layer"
     id="layer1">
    <path
       style="fill:none;stroke:#00fc00;stroke-width:1.565;stroke-linecap:butt;stroke-linejoin:miter;stroke-opacity:1;stroke-miterlimit:4;stroke-dasharray:none"
       d="m 101.56242,133.96559 c -0.70803,-1.12691 -1.827517,0.28172 -2.672696,0 -0.377976,-0.126 -0.676077,-0.46904 -1.069079,-0.53454 -0.703021,-0.11717 -1.425437,0 -2.138156,0 -0.178178,0 -0.365503,0.0563 -0.534537,0 -0.377979,-0.12599 -0.691103,-0.40855 -1.069078,-0.53454 -0.696955,-0.23232 -1.441204,-0.30222 -2.138156,-0.53454 -3.871892,-1.29063 0.842756,0.15411 -1.603619,-1.06908 -0.159369,-0.0797 -0.356359,0 -0.534538,0 -0.178181,-0.17818 -0.309157,-0.42185 -0.53454,-0.53454 -0.159369,-0.0797 -0.375171,0.0797 -0.53454,0 -0.22538,-0.11269 -0.295484,-0.45485 -0.534538,-0.53454 -0.338071,-0.11269 -0.723358,0.0864 -1.069078,0 -0.386527,-0.0966 -0.691102,-0.40854 -1.069078,-0.53454 -0.169037,-0.0563 -0.375171,0.0797 -0.53454,0 -0.450763,-0.22538 -0.618313,-0.84369 -1.069078,-1.06907 -0.331362,-0.16568 -2.344624,0.16403 -2.672694,0 -0.450763,-0.22538 -0.665904,-0.7667 -1.069078,-1.06908 -0.318739,-0.23906 -0.712719,-0.35636 -1.069078,-0.53454 -0.712719,-0.35636 -1.475142,-0.62707 -2.138156,-1.06908 -1.277972,-0.85198 -0.675897,-1.23805 -2.138157,-1.60362 -0.34572,-0.0864 -0.731006,0.11269 -1.069078,0 -0.239053,-0.0797 -0.324876,-0.39476 -0.53454,-0.53453 -0.331507,-0.22101 -0.691102,-0.40855 -1.069078,-0.53454 -0.801809,-0.26727 -0.534538,0.53454 -1.603616,0 -0.159369,-0.0797 0.159369,-0.45486 0,-0.53454 -0.318738,-0.15937 -0.72336,0.0864 -1.069078,0 -0.343889,-0.086 -2.827308,-1.37566 -3.207234,-1.60362 -2.091801,-1.25508 -3.761721,-3.06591 -5.879931,-4.27631 -0.691853,-0.39535 -1.425437,-0.71272 -2.138156,-1.06908 -0.356359,-0.17818 -0.750339,-0.29549 -1.069078,-0.53454 -0.403174,-0.30238 -0.7411,-0.68644 -1.069078,-1.06908 -1.45611,-1.69879 -2.490234,-3.42168 -4.276312,-4.81085 -0.820102,-0.63786 -1.874546,-0.93849 -2.672696,-1.60362 -0.306076,-0.25506 -0.295484,-0.75034 -0.534538,-1.06908 -0.8309,-1.10786 -2.327743,-2.10786 -3.207234,-3.20723 -0.401328,-0.50166 -0.667753,-1.10196 -1.069078,-1.60362 -0.314828,-0.39353 -0.712719,-0.71271 -1.069078,-1.06907 -0.35636,-0.35636 -0.675545,-0.75426 -1.069078,-1.069082 -0.501658,-0.401328 -1.101961,-0.667752 -1.603619,-1.069078 -0.393533,-0.314827 -0.712718,-0.712718 -1.069078,-1.069078 -0.356359,-0.356359 -0.766696,-0.665903 -1.069078,-1.069078 -0.239054,-0.318738 -0.295487,-0.750342 -0.534538,-1.069078 -0.302381,-0.403175 -0.809789,-0.636929 -1.069078,-1.069078 -0.313126,-0.521877 -0.528209,-2.131825 -1.069078,-2.672696 -1.105982,-1.10598 0.04323,1.690084 -1.069078,-0.534538 -0.159369,-0.318738 0.159367,-0.750343 0,-1.069078 -0.112691,-0.225383 -0.421849,-0.309158 -0.53454,-0.534541 -0.159369,-0.318738 0.159369,-0.750339 0,-1.069078 -0.112691,-0.225382 -0.421849,-0.309157 -0.534538,-0.53454 -0.07968,-0.159366 0.07968,-0.375168 0,-0.534538 -0.112691,-0.225382 -0.421849,-0.309157 -0.53454,-0.53454 -0.658273,-1.316543 1.551625,0.482547 -0.534538,-1.603616 -0.125992,-0.125992 -0.408548,0.125992 -0.53454,0 -0.125992,-0.125992 0.07968,-0.375171 0,-0.53454 -0.112692,-0.22538 -0.421849,-0.309158 -0.534538,-0.534538 -0.07968,-0.159369 0.04321,-0.36168 0,-0.53454 -0.13666,-0.546629 -0.325279,-1.080463 -0.53454,-1.603616 -0.295939,-0.739852 -0.875816,-1.365104 -1.069078,-2.138156 -0.08643,-0.34572 0.08643,-0.72336 0,-1.069078 -0.09663,-0.386527 -0.437907,-0.682554 -0.534538,-1.069078 -0.08643,-0.345721 0.08643,-0.72336 0,-1.069078 -0.193265,-0.773052 -0.875816,-1.365105 -1.069081,-2.138156 -0.117893,-0.47158 0.152641,-1.680239 0,-2.138156 -0.125992,-0.377976 -0.408545,-0.691103 -0.534537,-1.069078 -0.106897,-0.320694 0,-2.246157 0,-2.672697 0,-1.781797 0,-3.563593 0,-5.34539 0,-1.069078 0,-2.138156 0,-3.207234 0,-0.35636 0,-0.712719 0,-1.069078 0,-0.178179 -0.07969,-0.375171 0,-0.534538 0.112691,-0.225383 0.383349,-0.332954 0.534537,-0.53454 0.385464,-0.513948 0.657802,-1.110083 1.069081,-1.603619 0.771028,-0.925232 2.468917,-2.222812 3.207234,-3.207234 0.239051,-0.318735 0.295484,-0.75034 0.534538,-1.069078 0.302382,-0.403175 0.766696,-0.665903 1.069078,-1.069078 0.239054,-0.318736 0.223425,-0.820184 0.53454,-1.069078 0.622229,-0.497784 1.425438,-0.712719 2.138156,-1.069078 0.35636,-0.178178 0.78735,-0.252812 1.069078,-0.534538 0.281726,-0.281728 0.313534,-0.737571 0.534538,-1.069078 0.279551,-0.419327 0.712719,-0.712718 1.069078,-1.069078 0.35636,-0.356359 0.712719,-0.712719 1.069078,-1.069078 0.178181,-0.178181 0.324877,-0.394764 0.534541,-0.53454 0.331507,-0.221004 0.737571,-0.313534 1.069078,-0.534538 1.223187,-0.815459 -0.334243,-0.423124 1.603615,-1.069078 0.169037,-0.05635 0.375172,0.07968 0.534541,0 0.450762,-0.225383 0.64975,-0.789527 1.069078,-1.069078 0.98684,-0.657894 2.220391,-0.945724 3.207234,-1.603618 0.419327,-0.279551 0.665903,-0.766697 1.069078,-1.069078 0.318738,-0.239054 0.75034,-0.295487 1.069078,-0.534538 0.403175,-0.302382 0.665903,-0.766699 1.069078,-1.069078 0.318738,-0.239054 0.78735,-0.252812 1.069078,-0.534541 2.778305,-2.778304 -0.506725,-0.556791 2.138156,-2.672693 0.501658,-0.401328 1.149348,-0.614807 1.603616,-1.069078 0.125995,-0.125992 -0.09884,-0.386287 0,-0.534541 0.279553,-0.419327 0.712719,-0.712718 1.069078,-1.069078 0.356359,-0.356359 0.636931,-0.809789 1.069078,-1.069078 0.483158,-0.289893 1.12046,-0.244644 1.603618,-0.534538 0.43215,-0.259291 0.665904,-0.766699 1.069078,-1.069078 0.637474,-0.478107 1.475143,-0.62707 2.138157,-1.06908 0.419327,-0.279551 0.618315,-0.843696 1.069078,-1.069078 0.503967,-0.251984 1.134795,-0.221991 1.603618,-0.534538 0.148254,-0.09884 0,-0.356359 0,-0.534539 0.356359,-0.17818 0.6911,-0.408547 1.069078,-0.534539 0.568008,-0.189336 1.570149,0.189336 2.138156,0 3.028529,-1.514266 -0.796845,0.199211 2.138156,-0.534539 0.942674,-0.235669 1.867924,-1.258716 2.672694,-1.603617 0.675254,-0.289395 1.456047,-0.261696 2.138156,-0.534539 0.233963,-0.09359 0.35636,-0.35636 0.534541,-0.53454 0.356359,-0.178179 0.691102,-0.408547 1.069078,-0.534539 0.169034,-0.05635 0.408545,0.125992 0.534537,0 0.281729,-0.281726 0.215802,-0.830024 0.534541,-1.069078 0.450762,-0.338072 1.114401,-0.254988 1.603615,-0.534539 0.773518,-0.442009 1.382678,-1.131442 2.138156,-1.603617 0.675722,-0.422326 1.475142,-0.627069 2.138157,-1.069078 1.277971,-0.85198 0.675896,-1.238052 2.138156,-1.603617 0.34572,-0.08643 0.72336,0.08643 1.069078,0 0.773054,-0.193263 1.365104,-0.875815 2.138158,-1.069078 0.345718,-0.08643 0.731005,0.11269 1.069079,0 0.239051,-0.07969 0.324873,-0.394763 0.534537,-0.534539 0.331507,-0.221005 0.691102,-0.408547 1.069078,-0.534539 0.320694,-0.106898 2.246157,0 2.672697,0 1.247256,0 2.494515,0 3.741772,0 0.356358,0 0.712718,0 1.069078,0 0.35636,0 0.72336,-0.08643 1.06908,0 0.38652,0.09663 0.68255,0.437907 1.06908,0.534539 0.34572,0.08643 0.71271,0 1.06907,0 0.71272,0 1.43928,-0.139776 2.13816,0 0.24709,0.04942 0.29549,0.454854 0.53454,0.534539 0.33807,0.11269 0.72336,-0.08643 1.06908,0 0.38652,0.09663 0.68255,0.437907 1.06908,0.534539 0.34571,0.08643 0.71271,0 1.06907,0 0.35636,0.17818 0.69111,0.408547 1.06908,0.534539 0.33807,0.112691 0.75034,-0.159369 1.06908,0 0.57461,0.287306 1.00713,0.830483 1.60362,1.069078 2.258,0.9032 -0.13347,-1.169177 2.13815,0.534539 0.80635,0.604762 1.27386,1.619577 2.13816,2.138156 0.48316,0.289895 1.09965,0.282555 1.60362,0.534539 0.69433,0.347165 3.37858,2.370037 3.74177,2.672696 0.38716,0.322632 0.6659,0.766697 1.06908,1.069078 0.31873,0.239053 0.75034,0.295485 1.06908,0.534539 0.40317,0.30238 0.67127,0.759671 1.06908,1.069078 1.20988,0.941023 2.55548,1.702094 3.74177,2.672694 5.14692,5.146929 -0.32868,-0.04913 3.74177,3.207236 1.65421,1.323364 0.62272,0.904682 2.13816,2.672694 0.65595,0.765284 1.35109,1.508504 2.13815,2.138156 1.00332,0.802654 2.17934,1.367235 3.20724,2.138156 0.40317,0.302382 0.6659,0.766697 1.06908,1.069079 0.31873,0.239053 0.78735,0.252812 1.06907,0.53454 0.80675,0.806741 1.33142,1.865953 2.13816,2.672694 0.45427,0.454271 1.08967,0.683617 1.60362,1.069078 1.71123,1.283422 3.41069,2.642798 4.81085,4.276312 0.41809,0.487775 0.61481,1.149347 1.06908,1.603618 0.45427,0.454271 1.05273,0.738548 1.60362,1.069078 1.23181,0.73909 2.57281,1.30319 3.74177,2.138156 1.33675,0.954821 2.51398,2.11586 3.74177,3.207235 1.60823,1.429538 3.33319,3.333189 4.81085,4.810852 0.71272,0.712719 1.42544,1.425438 2.13816,2.138156 0.35636,0.35636 0.7667,0.665904 1.06908,1.069078 0.23905,0.318736 0.29548,0.75034 0.53454,1.069078 0.30238,0.403175 0.71271,0.712719 1.06907,1.069078 0.8909,0.890897 1.7818,1.781797 2.6727,2.672694 0.35636,0.35636 0.7667,0.665904 1.06908,1.069078 0.23905,0.318738 0.35636,0.712719 0.53454,1.069078 0.17817,0.35636 0.35636,0.712719 0.53453,1.069078 0.17818,0.35636 0.43791,0.682554 0.53454,1.069078 0.0864,0.345721 -0.0864,0.723361 0,1.069078 0.0966,0.386528 0.43791,0.682554 0.53454,1.069078 0.17286,0.691439 -0.17286,1.446718 0,2.138157 0.0966,0.386527 0.43791,0.682553 0.53454,1.069078 0.10512,0.420478 0,2.651355 0,3.207234 0,1.069078 0,2.138156 0,3.207234 0,0.53454 0.0663,1.073208 0,1.603618 -0.11269,0.901526 -0.42185,1.771169 -0.53454,2.672697 -0.0663,0.53041 0.11596,1.081804 0,1.603616 -0.63762,2.869313 -2.03024,4.83531 -3.20723,7.483546 -0.67719,1.523672 -0.15107,1.704332 -1.60362,2.6727 -0.14825,0.0988 -0.37517,-0.0797 -0.53454,0 -0.526,0.263 -1.61215,1.87515 -2.13815,2.13815 -0.31874,0.15937 -0.71272,0 -1.06908,0 -0.35636,0.17818 -0.73757,0.31354 -1.06908,0.53454 -1.99873,1.33249 0.41171,-0.19259 -0.53454,1.06908 -0.45357,0.60476 -1.02288,1.11967 -1.60362,1.60362 -2.1871,1.82258 -1.12764,0.3954 -3.74177,2.13815 -0.41933,0.27955 -0.6659,0.7667 -1.06908,1.06908 -0.31873,0.23905 -0.74487,0.30296 -1.06907,0.53454 -0.9284,0.66314 -1.91472,1.28543 -2.6727,2.13815 -0.69025,0.77653 -0.99974,1.82727 -1.60362,2.6727 -0.29292,0.4101 -0.7667,0.6659 -1.06907,1.06908 -0.23906,0.31874 -0.27948,0.763 -0.53455,1.06908 -0.64526,0.77432 -1.42543,1.42543 -2.13815,2.13815 -0.35636,0.35636 -0.68644,0.7411 -1.06908,1.06908 -0.86624,0.74249 -1.80645,1.39567 -2.6727,2.13816 -2.34437,2.00946 0.4749,0.21794 -3.20723,2.67269 -0.33151,0.22101 -0.71272,0.35636 -1.06908,0.53454 -0.35636,0.17818 -0.68255,0.43791 -1.06908,0.53454 -0.34571,0.0864 -0.72335,-0.0864 -1.06907,0 -0.77306,0.19326 -1.38221,0.8171 -2.13816,1.06908 -0.16903,0.0563 -0.3655,-0.0564 -0.53454,0 -0.35636,0.17818 -0.71272,0.35636 -1.06908,0.53454 0,0.17818 0.126,0.40855 0,0.53454 -0.12599,0.12599 -0.3655,-0.0563 -0.53454,0 -0.37797,0.12599 -0.6911,0.40854 -1.06907,0.53454 -0.33808,0.11269 -0.73101,-0.1127 -1.06908,0 -3.87189,1.29063 0.84276,-0.15411 -1.60362,1.06907 -0.15937,0.0797 -0.36168,-0.0432 -0.53454,0 -0.54663,0.13666 -1.08046,0.32528 -1.60361,0.53454 -0.36993,0.14797 -0.71272,0.35636 -1.06908,0.53454 -0.71272,0.17818 -1.44121,0.30222 -2.13816,0.53454 -0.75595,0.25199 -1.3822,0.8171 -2.13815,1.06908 -0.69696,0.23232 -1.44121,0.30222 -2.13816,0.53454 -0.37798,0.12599 -0.71272,0.35636 -1.06908,0.53454 -0.35636,0.17818 -0.75034,0.29548 -1.06908,0.53454 -0.80635,0.60476 -1.33181,1.53339 -2.13815,2.13815 -0.31874,0.23906 -0.71272,0.35636 -1.06908,0.53454 -0.71272,0.35636 -1.42544,0.71272 -2.13816,1.06908 -0.71272,0.35636 -1.42544,0.71272 -2.13816,1.06908 -0.35636,0.17818 -0.68255,0.4379 -1.06907,0.53454 -0.34572,0.0864 -0.72336,-0.0864 -1.06908,0 -0.38653,0.0966 -0.68255,0.43791 -1.06908,0.53454 -0.34572,0.0864 -0.72336,-0.0864 -1.06908,0 -0.77305,0.19326 -1.3651,0.87581 -2.13815,1.06907 -0.34572,0.0864 -0.73101,-0.11269 -1.06908,0 -0.23905,0.0797 -0.30916,0.42185 -0.53454,0.53454 -0.31874,0.15937 -0.73101,-0.11269 -1.06908,0 -0.37797,0.12599 -0.6911,0.40855 -1.06908,0.53454 -0.30158,0.10053 -1.25236,0 -1.60361,0 -0.17818,0 -0.40855,0.12599 -0.53454,0 -0.12599,-0.12599 -0.17818,-0.53454 0,-0.53454 0.25198,0 0.71272,0.71272 0.53454,0.53454 -0.35636,-0.35636 -0.64975,-0.78952 -1.06908,-1.06908 -0.14826,-0.0988 -0.40855,0.126 -0.53454,0 -0.12599,-0.12599 0,-0.35635 0,-0.53454 0,-0.17817 0,-0.35636 0,-0.53453 0,-1.95998 0,-3.91996 0,-5.87993 z"
       id="path92"
       inkscape:connector-curvature="0" />
    <path
       style="fill:none;stroke:#00fc00;stroke-width:1.565;stroke-linecap:butt;stroke-linejoin:miter;stroke-opacity:1;stroke-miterlimit:4;stroke-dasharray:none"
       d="m 89.802559,131.29289 c 3.155346,0.91339 -0.450763,2.92402 2e-6,4.27631 0.125992,0.37798 0.437907,0.68256 0.534538,1.06908 0.08643,0.34572 -0.08643,0.72336 0,1.06908 0.09663,0.38652 0.437907,0.68255 0.53454,1.06908 0.08643,0.34572 -0.08643,0.72336 0,1.06908 0.09663,0.38652 0.456401,0.67839 0.534538,1.06907 0.104831,0.52416 -0.0663,1.07321 0,1.60362 0.112691,0.90153 0.406051,1.77329 0.534541,2.6727 0.05039,0.35277 -0.06989,0.71964 0,1.06907 0.1105,0.55252 0.424034,1.05111 0.534537,1.60362 0.06989,0.34944 -0.08643,0.72336 0,1.06908 0.09663,0.38653 0.437907,0.68255 0.534541,1.06908 0.08643,0.34572 -0.08643,0.72336 0,1.06908 0.09663,0.38652 0.437906,0.68255 0.534537,1.06908 0.08643,0.34571 -0.08643,0.72335 0,1.06907 0.09663,0.38653 0.437907,0.68255 0.534541,1.06908 0.08643,0.34572 0,0.71272 0,1.06908 0,0.35636 0,0.71272 0,1.06908 0,1.60361 0,3.20723 0,4.81085 0,1.42543 0,2.85087 0,4.27631 0,0.35636 0,0.71272 0,1.06908 0,0.35636 -0.08643,0.72336 0,1.06908 0.09663,0.38652 0.437906,0.68255 0.534537,1.06907 0.08643,0.34572 0,0.71272 0,1.06908 0,1.06908 -0.106375,2.14347 0,3.20724 0.203438,2.03436 0.744088,4.89073 1.069078,6.949 0.365512,2.31491 0.737645,4.62898 1.069078,6.94901 0.203158,1.4221 0.35636,2.85088 0.534541,4.27632 0.178178,2.67269 0.188087,5.36195 0.534537,8.01808 0.19004,1.45697 0.90682,2.81599 1.069079,4.27631 0.196767,1.7709 0,3.5636 0,5.34539 0,4.09814 0,8.19627 0,12.2944 0,6.23629 0,12.47258 0,18.70887 0,1.78179 0,3.56359 0,5.34539 0,0.35636 0,0.71272 0,1.06908 0,0.35636 0.08643,0.72336 0,1.06907 -0.09663,0.38653 -0.35636,0.71272 -0.534538,1.06908 -0.178181,0.71272 -0.413764,1.4135 -0.534541,2.13816 -0.11717,0.70302 0.172861,1.44672 0,2.13815 -0.09663,0.38653 -0.469037,0.67608 -0.534537,1.06908 -0.117171,0.70302 0,1.42544 0,2.13816 0,1.60362 0,3.20723 0,4.81085 0,0.35636 0,0.71272 0,1.06908 0,0.17818 0.125992,0.40855 0,0.53454 -0.125992,0.12599 -0.408549,-0.12599 -0.534541,0 -0.251983,0.25198 0.251984,0.81709 0,1.06908 -0.712718,0.71271 -0.534537,-0.8909 -0.534537,0.53454"
       id="path94"
       inkscape:connector-curvature="0" />
    <path
       style="fill:none;stroke:#00fc00;stroke-width:1.565;stroke-linecap:butt;stroke-linejoin:miter;stroke-opacity:1;stroke-miterlimit:4;stroke-dasharray:none"
       d="m 119.73675,136.10374 c -0.006,4.1162 -0.17584,8.20975 0.53454,12.2944 0.40731,2.34206 1.24214,4.59944 1.60361,6.94901 3.00047,19.50299 1.07554,7.63862 1.60362,20.31248 0.32014,7.6834 0.65506,5.45885 1.60362,13.36348 1.15267,3.87147 0.14408,7.85533 0.53454,11.75986 0.1808,1.80806 0.8121,3.54657 1.06908,5.34539 0.27832,1.94828 0.16629,3.94663 0.53453,5.87993 0.65843,3.45672 2.31559,6.76799 3.20724,10.15624 0.46243,1.75726 0.60664,3.58814 1.06908,5.34539 0.43018,1.63471 1.06907,3.20723 1.60361,4.81085 0.35636,1.06908 0.86749,2.0985 1.06908,3.20724 0.15937,0.87652 -0.12599,1.79075 0,2.67269 0.0564,0.39442 0.38657,0.69915 0.53454,1.06908 0.20926,0.52315 0.42404,1.05111 0.53454,1.60362 0.12041,0.60207 0,1.49487 0,2.13815 0,1.95998 0,3.91995 0,5.87993 0,1.06908 0,2.13816 0,3.20724 0,0.53453 0,1.06907 0,1.60361 0,0.35636 0.0864,0.72336 0,1.06908 -0.0966,0.38653 -0.43791,0.68255 -0.53454,1.06908 -0.0864,0.34572 0,0.71272 0,1.06908 -0.17818,0.35636 -0.40855,0.6911 -0.53454,1.06907 -0.0563,0.16904 0.0797,0.37518 0,0.53455 -0.11269,0.22538 -0.42185,0.30915 -0.53454,0.53453 -0.15937,0.31874 0.15937,0.75035 0,1.06908 -0.11269,0.22538 -0.30916,0.42185 -0.53454,0.53454 -0.14055,0.0703 -1.85863,0 -2.13815,0 -0.17818,0 -0.40855,-0.12599 -0.53454,0 -0.25199,0.25199 0.25198,0.8171 0,1.06908 -0.12599,0.12599 -0.37517,-0.0797 -0.53454,0 -0.45076,0.22538 -0.64975,0.78953 -1.06908,1.06908 -0.33151,0.221 -0.78735,0.25281 -1.06908,0.53454 -0.12599,0.12599 0.14826,0.4357 0,0.53454 -1.21876,0.81251 -3.44781,0.53453 -4.81085,0.53453 -1.95997,0 -3.91995,0 -5.87993,0 -3.74177,0 -7.48355,0 -11.22532,0 -1.24726,0 -2.49451,0 -3.74177,0 -0.69281,0 -1.45143,0.0858 -2.138158,0 -1.250191,-0.15627 -2.494516,-0.35635 -3.741772,-0.53453"
       id="path96"
       inkscape:connector-curvature="0" />
    <path
       style="fill:none;stroke:#00fc00;stroke-width:1.565;stroke-linecap:butt;stroke-linejoin:miter;stroke-opacity:1;stroke-miterlimit:4;stroke-dasharray:none"
       d="m 81.784475,58.595582 c -1.699419,5.325647 -5.111012,-0.256307 -7.483547,0.534538 -0.239053,0.07968 -0.309157,0.421849 -0.53454,0.53454 -0.159369,0.07968 -0.375169,-0.07968 -0.534538,0 -0.450762,0.22538 -0.665903,0.766696 -1.069078,1.069078 -0.51395,0.385461 -1.10196,0.66775 -1.603618,1.069078 -0.393533,0.314825 -0.712719,0.712719 -1.069078,1.069078 -0.712719,0.712719 -1.425438,1.425438 -2.138156,2.138156 -0.712719,0.712719 -1.508504,1.35109 -2.138156,2.138156 -0.401326,0.501658 -0.614807,1.149345 -1.069078,1.603616 -0.281726,0.281729 -0.744869,0.302961 -1.069078,0.534541 -0.928394,0.663138 -1.772119,1.437706 -2.672694,2.138156 -0.703234,0.546957 -1.453751,1.033277 -2.138159,1.603615 -0.387157,0.322633 -0.712719,0.712719 -1.069078,1.069078 -0.356359,0.35636 -0.741098,0.686438 -1.069078,1.069078 -0.742492,0.866241 -1.331413,1.865953 -2.138156,2.672697 -0.281726,0.281726 -0.78735,0.252812 -1.069078,0.534538 -0.281726,0.281728 -0.228463,0.814014 -0.534538,1.069078 -0.79815,0.665125 -1.808231,1.027308 -2.672696,1.603618 -0.209664,0.139774 -0.421847,0.309158 -0.534538,0.534538 -0.167987,0.33597 0.167984,1.802188 0,2.138156 -0.225383,0.450765 -0.843698,0.618315 -1.069078,1.069078 -0.07968,0.159369 0.04321,0.36168 0,0.53454 -0.405445,1.621777 -0.869106,1.942026 -1.069078,3.741775 -0.09838,0.885449 0,1.781797 0,2.672694 0,0.712718 0,1.425437 0,2.138156 0,1.425437 0,2.850874 0,4.276312 0,0.53454 -0.104833,1.079458 0,1.603618 0.07814,0.390682 0.437906,0.682552 0.534538,1.069082 0.08643,0.34571 -0.15937,0.75034 0,1.06907 0.07968,0.15937 0.375171,-0.0797 0.53454,0 0.22538,0.1127 0.356359,0.35636 0.534538,0.53454 0.178181,0.17818 0.421849,0.30916 0.53454,0.53454 0.07968,0.15937 -0.07969,0.37517 0,0.53454 0.590947,1.1819 0.331758,0.16588 1.069078,0.53454 0.22538,0.11269 0.309158,0.42185 0.534538,0.53454 0.159369,0.0797 0.386286,-0.0988 0.53454,0 0.528143,0.3521 2.076651,2.07665 2.672694,2.67269 0.178181,0.17818 0.309157,0.42185 0.53454,0.53454 0.159369,0.0797 0.375171,-0.0797 0.534538,0 0.450765,0.22538 0.618315,0.8437 1.069078,1.06908 0.159369,0.0797 0.391996,-0.10691 0.53454,0 0.604761,0.45357 1.069078,1.06908 1.603616,1.60362 0.356359,0.35636 0.649753,0.78953 1.069078,1.06908 0.148257,0.0988 0.408548,-0.126 0.53454,0 0.712719,0.71272 -0.890899,0.53453 0.534541,0.53453 0.326959,0 2.615755,0.0456 2.672694,0 0.695674,-0.55653 1.016957,-1.46768 1.603618,-2.13815 0.663728,-0.75855 1.552305,-1.31797 2.138156,-2.13816 2.678745,-3.75024 3.189761,-5.23707 4.81085,-9.08716 0.898872,-2.134817 1.731944,-4.297775 2.672696,-6.414468 1.826927,-4.110588 1.32492,-2.061234 2.672694,-5.879931 0.750115,-2.125326 1.425438,-4.276312 2.138156,-6.414468 0.178181,-0.53454 0.221994,-1.134795 0.534541,-1.603618 0.419327,-0.628989 1.296596,-0.912818 1.603615,-1.603616 0.738942,-1.662618 0.534541,-4.055761 0.534541,-5.879931 0,-0.356359 0,-0.712718 0,-1.069078 0,-0.356359 0.183345,-0.763503 0,-1.069078 C 81.39554,68.103598 80.653098,67.738505 80.180856,67.148206 79.931965,66.837091 79.885372,66.397864 79.646319,66.079128 79.343937,65.675954 78.9336,65.36641 78.577241,65.01005 c -1.069078,-1.069078 -2.138157,-2.138156 -3.207235,-3.207234 -0.356359,-0.356359 -0.712718,-0.712718 -1.069078,-1.069078 -0.178181,-0.178181 -0.394763,-0.324876 -0.53454,-0.53454 -0.78871,-1.183066 -0.216395,-1.213342 -1.603616,-2.138156 -0.29651,-0.197673 -0.817094,0.251984 -1.069078,0 -0.125992,-0.125992 0.125992,-0.408546 0,-0.534541 -0.125992,-0.125992 -0.408548,-0.125992 -0.53454,0 -0.125992,0.125995 0.125992,0.408549 0,0.534541 -0.281726,0.281725 -0.757963,0.285647 -1.069078,0.53454 -0.590299,0.472239 -1.202963,0.96257 -1.603616,1.603616 -1.017098,1.627354 -1.121061,3.718036 -2.138156,5.34539 -0.400656,0.641046 -1.265547,0.927473 -1.603618,1.603618 -0.406313,0.812623 -0.247232,1.810777 -0.534538,2.672694 -0.784802,2.3544 -1.750997,4.644755 -2.672697,6.949009 -3.235462,8.088656 -0.1568,-1.002893 -4.810852,12.294399 -0.707398,2.021139 -0.534538,2.187818 -0.534538,4.276312 0,0.534538 -0.129646,1.085038 0,1.603616 0.29087,1.163481 1.356588,1.891128 2.138156,2.672696 0.35636,0.35636 0.665904,0.766697 1.069078,1.069078 0.637474,0.478105 1.475142,0.627068 2.138156,1.069078 0.209664,0.139774 0.309158,0.421842 0.534541,0.534542 0.159366,0.0797 0.408546,-0.126 0.534537,0 0.125992,0.12599 -0.159369,0.45485 0,0.53454 0.08364,0.0418 2.523252,0 2.672697,0 0.356359,0 0.712719,0 1.069078,0 0.356359,0 0.738206,0.13234 1.069078,0 1.791311,-0.71653 2.554814,-2.317428 3.741772,-3.741778 1.775209,-2.130248 4.070098,-4.398423 5.34539,-6.949006 0.503968,-1.007938 0.602761,-2.181336 1.069078,-3.207237 0.429924,-0.94583 1.217758,-1.708047 1.603619,-2.672694 0.337423,-0.84356 0.356359,-1.781797 0.534537,-2.672696 0.178181,-0.890897 0.314188,-1.79128 0.534541,-2.672694 0.136657,-0.546632 0.424037,-1.051105 0.534537,-1.603618 0.06989,-0.349438 0,-0.712719 0,-1.069078 0,-0.534538 0,-1.069079 0,-1.603616 0,-0.178181 0.178181,-0.534541 0,-0.534541 -0.39842,0 -0.880186,0.18374 -1.069078,0.534541 -1.098174,2.039466 -1.773825,4.279651 -2.672694,6.414468 -0.01413,0.03357 -3.206588,7.481451 -3.207234,7.483546 -0.318738,1.035897 -0.191804,2.179029 -0.53454,3.207235 -0.203155,0.609467 -0.816009,1.013126 -1.069078,1.603618 -0.632616,1.476108 -0.534538,2.760004 -0.534538,4.276312 0,0.252034 -0.02424,2.648468 0,2.672698 0.251984,0.25198 0.731004,-0.1127 1.069078,0 0.377976,0.12599 0.691103,0.40854 1.069078,0.53454 0.117375,0.0391 2.058689,0.0397 2.138156,0 2.224622,-1.112317 -0.571441,0.0369 0.534538,-1.069082 0.125992,-0.125992 0.365503,0.05635 0.53454,0 0.377976,-0.125992 0.712719,-0.356359 1.069079,-0.53454 0.356359,-0.178178 0.737571,-0.313534 1.069078,-0.534538 0.647403,-0.431604 2.150541,-1.836245 3.207234,-2.138156 0.549198,-0.156914 3.850452,-0.854673 4.81085,-0.53454 0.0074,0.0024 0.05149,1.552125 0,1.603618 -0.125992,0.125992 -0.35636,0 -0.534538,0"
       id="path98"
       inkscape:connector-curvature="0" />
    <path
       style="fill:none;stroke:#00fc00;stroke-width:1.565;stroke-linecap:butt;stroke-linejoin:miter;stroke-opacity:1;stroke-miterlimit:4;stroke-dasharray:none"
       d="m 115.46043,38.817637 c -1.60361,0.890897 -3.32724,1.59371 -4.81085,2.672694 -0.5069,0.368657 -2.02731,3.383153 -2.13815,3.741774 -2.79716,9.049626 -5.32236,18.181135 -8.01809,27.261492 -0.689725,2.323285 -1.529946,4.603062 -2.138154,6.949006 -0.640242,2.469501 -1.103297,4.981945 -1.603619,7.483546 -1.225073,6.125371 -2.034084,10.397471 -2.672693,16.570711 -0.257339,2.4876 -0.154266,5.01176 -0.534541,7.48355 -0.335129,2.17833 -1.13543,4.26081 -1.603615,6.41446 -0.423186,1.94665 -0.678395,3.92651 -1.069079,5.87994 -0.144078,0.72038 -0.430643,1.41088 -0.53454,2.13815 -0.125992,0.88194 0,1.7818 0,2.6727 0,0.35636 -0.132347,0.7382 0,1.06908 0.844492,2.11123 3.110643,3.06187 4.810853,4.27631 7.965748,5.68982 -1.125906,-0.44178 9.621698,5.34539 0.44373,0.23893 0.61832,0.84369 1.06908,1.06908 0.31874,0.15937 0.71272,0 1.06908,0 0.53454,0 1.06908,0 1.60362,0 0.35636,0 0.79531,0.22813 1.06907,0 2.78927,-2.32439 3.68466,-6.58097 4.81086,-9.62171 3.21339,-8.67616 4.17598,-11.31377 5.87993,-21.9161 0.82429,-5.12897 0.89381,-10.355567 1.60361,-15.50163 2.91489,-21.13293 2.6727,-9.109181 2.6727,-19.777946 0,-1.069078 0,-2.138156 0,-3.207234 0,-0.178178 0,-0.356359 0,-0.534537 0,-0.178181 0.12599,-0.408549 0,-0.534541 -0.0172,-0.0172 -1.47398,0 -1.60362,0 -0.55588,0 -2.78675,-0.105119 -3.20723,0 -2.14059,0.535146 -2.47334,2.533311 -3.20724,4.276312 -2.90663,6.903239 -3.92488,8.043977 -5.34539,15.501633 -0.20004,1.050198 0,2.138157 0,3.207235 0,1.781796 -0.11114,3.567064 0,5.34539 0.0152,0.242734 0.26484,3.472078 1.06908,4.276308 0.12599,0.126 0.37517,-0.0797 0.53454,0 0.22538,0.1127 0.30916,0.42185 0.53454,0.53454 0.15937,0.0797 0.35636,0 0.53454,0 0.17818,0 0.45485,0.15937 0.53454,0 0.32854,-0.65709 0.36522,-1.42328 0.53453,-2.138152 1.43432,-6.056013 2.336,-12.260976 4.27632,-18.174329 1.81627,-5.535319 4.87509,-10.592139 6.94901,-16.036171 0.7846,-2.059575 0.85042,-4.343201 1.60361,-6.414468 0.68079,-1.872171 1.84836,-3.531841 2.6727,-5.34539 0.0737,-0.162209 0.17818,-0.534541 0,-0.534541 -0.25199,0 -0.48666,0.287147 -0.53454,0.534541 -1.02975,5.320387 -2.13347,10.643941 -2.6727,16.03617 -2.17528,21.752862 -1.14815,19.783031 1.06908,40.62497 0.20819,1.95701 0.25622,3.93165 0.53454,5.87993 0.0797,0.55779 0.22199,1.13479 0.53454,1.60362 0.0988,0.14825 0.35636,0 0.53454,0 0.17818,0 0.40855,0.12599 0.53454,0 0.12599,-0.126 0,-0.35636 0,-0.53455 0,-4.81085 -0.18852,-9.62539 0,-14.43255 0.16471,-4.200202 2.06877,-23.73861 2.67269,-27.261489 0.25723,-1.500481 1.00393,-2.877037 1.60362,-4.276312 0.47084,-1.098624 1.13278,-2.108613 1.60362,-3.207235 0.0702,-0.163774 0,-0.712718 0,-0.53454 0,3.919953 0,7.839906 0,11.759859 0,2.138156 0,4.276312 0,6.414468 0,0.712719 0,1.425437 0,2.138156 0,0.178181 0,0.712721 0,0.53454 0,-2.316337 0,-4.632671 0,-6.949008 0,-1.069078 0,-2.138156 0,-3.207234 0,-0.35636 0,-0.712719 0,-1.069078 0,-0.178179 0,-0.712719 0,-0.534538 0,2.138156 0.0822,4.277892 0,6.414468 -0.19224,4.998045 -0.93395,9.967177 -1.06908,14.967093 -0.11072,4.09664 -0.13213,8.1984 0,12.2944 0.13202,4.09257 -0.40515,3.33662 1.06908,4.81085 0.17818,0.17818 0.30916,0.42185 0.53454,0.53454 0.16267,0.0813 1.36288,0 1.60361,0 0.35636,0 0.8171,0.25198 1.06908,0 0.39842,-0.39842 0.51637,-1.04046 0.53454,-1.60362 0.16085,-4.98643 -0.21211,-9.98257 0,-14.967092 0.14473,-3.401039 0.69316,-6.772944 1.06908,-10.15624 0.15864,-1.427745 0.25281,-2.867679 0.53454,-4.276315 0.25439,-1.271976 0.75447,-2.483334 1.06908,-3.741772 0.13363,-0.53454 -0.26727,-1.069078 0,-1.603618 0.0797,-0.159369 0.4357,-0.148254 0.53453,0 0.31255,0.468823 0.45486,1.045826 0.53454,1.603618 0.27833,1.948278 0.2426,3.933645 0.53454,5.879928 0.41545,2.769645 2.7568,11.207361 3.20724,12.828939 0.1508,0.542892 0.42403,1.051102 0.53454,1.603612 0.0699,0.34944 -0.11269,0.73101 0,1.06908 0.0797,0.23906 0.42185,0.30916 0.53453,0.53454 0.0797,0.15937 -0.12599,0.40855 0,0.53454 0.53653,0.53652 0.95948,-0.61716 1.06908,-1.60362 0.29581,-2.662241 0.14199,-5.368373 0.53454,-8.018082 0.89543,-6.044142 2.41804,-8.0869 4.81086,-13.898015 0.21453,-0.521015 0.22199,-1.134795 0.53453,-1.603618 0.0988,-0.148254 0.4782,-0.169035 0.53454,0 0.16904,0.507108 0,1.069078 0,1.603618 0,1.959975 -0.089,3.921974 0,5.879928 0.0894,1.966031 0.39913,3.916534 0.53454,5.879931 1.3,18.849988 -1.39322,5.23164 1.60362,11.225318 0.25198,0.50397 0.13612,1.2052 0.53454,1.60362 0.25198,0.25198 0,-0.71272 0,-1.06908 0,-4.098131 0,-8.196265 0,-12.294396 0,-3.741775 0,-7.483549 0,-11.225321 0,-0.712719 0,-1.425437 0,-2.138156 0,-0.178181 0.12599,-0.408548 0,-0.53454 -0.126,-0.125992 -0.35636,0 -0.53454,0"
       id="path100"
       inkscape:connector-curvature="0" />
    <path
       style="fill:none;stroke:#00fc00;stroke-width:1.565;stroke-linecap:butt;stroke-linejoin:miter;stroke-opacity:1;stroke-miterlimit:4;stroke-dasharray:none"
       d="m 115.46043,38.817637 c -1.24726,1.959975 -2.49451,3.919953 -3.74177,5.879928 -0.17818,0.178181 -0.39476,0.324876 -0.53454,0.53454 -0.221,0.331507 -0.40331,0.692888 -0.53454,1.069078 -2.54259,7.288773 -4.99861,14.607469 -7.48354,21.916101 -1.08827,3.200776 -2.08207,6.433715 -3.207238,9.621703 -0.506675,1.435579 -1.211361,2.805348 -1.603616,4.276312 -0.324636,1.21738 -0.287449,2.506319 -0.534541,3.741772 -0.110503,0.552513 -0.441907,1.047832 -0.534537,1.603618 -0.08788,0.527267 0,1.069078 0,1.603619 0,0.356359 -0.159369,0.75034 0,1.069078 0.348075,0.69615 1.411041,1.361244 2.138156,1.603616 0.265321,0.08844 1.558096,0.04552 1.603616,0 0.12599,-0.125992 -0.0373,-0.360315 0,-0.534538 0.4981,-2.324447 1.22509,-4.602126 1.60362,-6.949009 0.51383,-3.1858 0.66882,-6.419651 1.06908,-9.621702 1.27785,-10.222854 2.38987,-12.763807 1.60361,-22.98518 -0.15703,-2.041403 -0.96792,-2.571543 -2.13815,-3.741774 -0.17818,-0.178178 -0.35636,-0.356359 -0.53454,-0.534538 -0.17818,-0.178181 -0.29549,-0.454856 -0.53454,-0.53454 -0.50711,-0.169034 -1.06908,0 -1.60362,0 -0.35636,0 -0.738207,-0.132347 -1.069076,0 -0.596487,0.238596 -1.077315,0.700667 -1.603619,1.069078 -1.255686,0.87898 -2.657948,1.58887 -3.741771,2.672696 -1.436532,1.436532 -2.277359,3.402759 -3.741775,4.81085 -3.19033,3.067624 -6.756178,5.719239 -10.156243,8.552627 -5.86055,4.883793 0.186098,-0.255786 -4.81085,3.741772 -0.196768,0.157414 -0.309157,0.421849 -0.53454,0.53454 -0.159369,0.07968 -0.356359,0 -0.534538,0 -0.178181,0 -0.408548,0.125992 -0.53454,0 -0.125992,-0.125991 0.05635,-0.365503 0,-0.53454 -0.125992,-0.377976 -0.336865,-0.723151 -0.534538,-1.069078 -5.084045,-8.89708 0.915535,4.675389 -4.810852,-20.312483 -0.629312,-2.746084 -1.877756,-5.315296 -2.672694,-8.018087 -0.100555,-0.341878 0,-0.712718 0,-1.069078 0,-0.178178 0,-0.712718 0,-0.534537 0,2.672694 -0.07633,5.34648 0,8.018084 0.223004,7.80516 1.023419,13.559464 0.534538,21.381563 -0.312989,5.007814 -1.20872,9.965071 -1.603616,14.967093 -0.140232,1.77627 0.196765,3.574492 0,5.34539 -0.162258,1.46032 -0.750343,2.841993 -1.069078,4.276313 -0.03865,0.173937 -0.125992,0.408548 0,0.53454 0.464034,0.464034 0.914657,-0.451395 1.069078,-1.069078 0.618741,-2.474976 0.923517,-5.024726 1.603616,-7.483549 1.637897,-5.921626 3.679526,-11.725968 5.34539,-17.639787 1.898335,-6.739083 3.317396,-13.61128 5.34539,-20.312485 2.072817,-6.849303 4.49031,-13.592043 6.949009,-20.312483 0.478692,-1.308424 1.481285,-2.07699 2.672694,-2.672696 0.159369,-0.07968 0.454855,-0.159368 0.53454,0 0.328546,0.657095 0.394938,1.416888 0.534538,2.138157 0.929711,4.803501 1.968449,9.590856 2.672696,14.432553 0.722231,4.965335 1.095973,9.975255 1.603619,14.967093 0.561445,5.520902 0.915299,11.06419 1.603615,16.570711 0.203756,1.630051 0.746911,3.200017 1.069078,4.810853 0.03494,0.17472 0,0.712718 0,0.534537 0,-4.69438 -0.05286,-0.495797 1.603619,-11.759858 2.185987,-14.864715 -0.498152,0.388988 4.27631,-18.708867 0.30558,-1.222301 0.26123,-2.511854 0.53454,-3.741772 0.0864,-0.388935 0.13612,-1.069078 0.53454,-1.069078 0.35636,0 0,0.712719 0,1.069078 0,2.316334 0,4.632671 0,6.949006 0,15.495505 0.51647,5.608542 -3.741775,28.86511 -1.076362,5.8786 -2.114116,11.76428 -3.207234,17.639789 -0.332359,1.786427 -0.856768,3.540752 -1.069078,5.34539 -0.14573,1.238712 0.205047,2.511482 0,3.741772 -0.04143,0.24856 -0.5295,-0.2826 -0.534537,-0.53454 -0.174583,-8.729057 -0.634937,-17.484725 0,-26.192411 0.615735,-8.444399 2.473396,-16.752062 3.741771,-25.123336 0.513438,-3.38868 0.914911,-6.798796 1.603619,-10.156242 0.738121,-3.598344 1.858624,-7.108857 2.672694,-10.690781 0.079,-0.347498 0.0938,-1.41288 0,-1.069078 -3.841184,14.08434 0.32811,-0.365077 -2.138156,14.432555 -1.476246,8.857469 -4.660443,22.383546 -6.949006,31.537804 -0.492729,1.970902 -1.045507,3.926536 -1.603619,5.879928 -0.511051,1.788676 -1.15244,3.540683 -1.603618,5.34539 -0.08643,0.34572 0.159369,0.750342 0,1.069078 -0.07968,0.159369 -0.454853,0.159369 -0.534538,0 -0.328546,-0.657093 -0.53454,-1.403501 -0.53454,-2.138156 0,-3.568044 0.0021,-7.162699 0.53454,-10.690781 0.897123,-5.943433 2.876584,-11.691622 3.741775,-17.639789 0.564819,-3.883136 0.403809,-7.838035 0.534537,-11.759858 0.04749,-1.424646 0,-2.850875 0,-4.276312 0,-0.178179 0.07968,-0.693907 0,-0.534538 -0.251984,0.503968 -0.432461,1.049486 -0.534537,1.603616 -1.146263,6.222566 -1.887125,12.52085 -3.207237,18.708867 -1.532769,7.184861 -3.826825,14.193686 -5.345391,21.381561 -6.592601,31.204993 -0.952653,6.885577 -3.207234,21.916103 -0.269547,1.79698 -0.888269,3.53732 -1.069078,5.34539 -0.01773,0.1773 0.35636,0 0.534541,0 0.178178,0 0.356359,0 0.534537,0 0.35636,0 0.817095,0.25198 1.069078,0 0.563454,-0.56345 0.884513,-1.36298 1.069078,-2.13816 4.850826,-20.373464 -3.743928,4.28171 8.018087,-25.123333 0.712719,-1.781797 1.400059,-3.573955 2.138156,-5.34539 0.241141,-0.578737 0.562377,-1.575779 1.069078,-1.069078 0.125992,0.125991 0,0.356359 0,0.53454 0,1.959975 -0.253502,3.936415 0,5.879928 2.162204,16.576886 1.352029,-4.591301 2.672697,13.898017 1.088744,15.242446 -1.205286,-0.06598 0.534537,14.432556 1.30342,10.86182 1.069078,2.24686 1.069078,10.69078 0,1.06908 0,2.13816 0,3.20723 0,0.35636 -0.08643,1.4148 0,1.06908 0.262867,-1.05146 0.394359,-2.13251 0.534541,-3.20723 0.394475,-3.02433 0.660635,-6.06469 1.069078,-9.08717 0.482568,-3.571 1.034306,-7.13257 1.603616,-10.69078 0.14354,-0.89713 0.40605,-1.77328 0.53454,-2.67269 0.0504,-0.352781 -0.25198,-0.817098 0,-1.069082 0.17818,-0.178178 0.50816,0.28394 0.53454,0.53454 0.33626,3.194532 0.12347,6.435932 0.53454,9.621702 0.31765,2.46181 4.0515,16.28097 4.27631,17.10525 0.14825,0.5436 0.32528,1.08046 0.53454,1.60362 0.14797,0.36992 0.25281,1.3508 0.53454,1.06908 0.37797,-0.37798 0,-1.06908 0,-1.60362 0,-1.95998 -0.0783,-3.92152 0,-5.87993 0.29158,-7.28959 0.19146,-6.87449 2.13815,-13.36348 1.73719,-5.79061 0.85378,-3.36499 3.20724,-7.48354 0.19767,-0.34593 0.35636,-1.425441 0.53454,-1.069082 1.20277,2.405552 1.28923,7.211442 1.60361,9.621702 0.30312,2.3239 0.60947,4.65093 1.06908,6.94901 0.0781,0.39068 0.25281,0.78735 0.53454,1.06907 0.12599,0.126 0,-0.35635 0,-0.53453 0,-0.71272 0,-1.42544 0,-2.13816 0,-6.39635 -0.34265,-1.13078 1.06908,-7.48355 0.0642,-0.28873 -0.0829,-2.58979 0,-2.67269 0.52775,-0.52775 0.79178,0.51448 1.06908,1.06908 0.17818,0.35636 0.43791,0.68255 0.53454,1.06907 0.0864,0.34572 0,0.71272 0,1.06908"
       id="path102"
       inkscape:connector-curvature="0" />
    <path
       style="fill:none;stroke:#00fc00;stroke-width:1.565;stroke-linecap:butt;stroke-linejoin:miter;stroke-opacity:1;stroke-miterlimit:4;stroke-dasharray:none"
       d="m 51.315749,46.835721 c -2.894285,4.053633 0.231095,8.617953 -0.53454,12.828939 -1.060551,5.833033 -1.051788,-0.15562 -1.603616,4.81085 -0.564975,5.084781 0.651087,0.975312 -0.53454,3.741774 -0.377976,0.881944 -0.805474,1.750087 -1.069078,2.672694 -0.0979,0.342649 0.112691,0.731007 0,1.069078 -0.07968,0.239054 -0.421847,0.759921 -0.534538,0.534541 -0.239054,-0.478108 -0.09289,-1.077212 0,-1.603619 0.443352,-2.512324 0.959651,-5.015015 1.603616,-7.483546 0.426685,-1.635622 1.050684,-3.213484 1.603618,-4.81085 1.050737,-3.035467 2.156497,-6.051701 3.207234,-9.087165 0.552934,-1.597369 0.975834,-3.241392 1.603616,-4.810852 1.155684,-2.889211 2.350145,-5.769369 3.741774,-8.552625 0.398423,-0.796843 1.047078,-1.442481 1.603619,-2.138156 0.157411,-0.196765 0.421846,-0.309157 0.534537,-0.534537 0.07968,-0.15937 0.02929,-0.710296 0,-0.534541 -0.04673,0.280355 -0.878895,6.399591 -1.069078,6.949009 -2.117971,6.118582 -3.769608,10.335106 -6.949008,15.50163 -0.405339,0.65868 -2.296684,3.134741 -3.207234,3.741775 -0.148254,0.09884 -0.375169,-0.07968 -0.534538,0 -0.891154,0.445577 -0.241525,1.069078 -1.603618,1.069078 -0.178179,0 -0.365504,0.05635 -0.534538,0 -2.137961,-0.712653 -2.929512,-2.915576 -3.741775,-4.810853 -0.07019,-0.163772 -0.04321,-0.707398 0,-0.534537 0.908492,3.633964 0.920385,6.676046 1.069078,10.69078 0.229164,6.187403 -0.333996,14.87289 -1.069078,20.312483 -0.27206,2.013262 -1.138309,3.902374 -1.603615,5.879931 -0.681004,2.894258 -0.534541,3.103025 -0.534541,5.87993 0,0.35636 -0.159369,0.75034 0,1.069078 0.07968,0.159369 0.408549,0.125992 0.534541,0 0.454271,-0.454271 0.720796,-1.063781 1.069078,-1.603618 3.215354,-4.9838 6.030351,-10.247032 9.621702,-14.967093 2.671273,-3.510817 6.206707,-6.280372 9.087165,-9.621702 14.976448,-17.372682 -11.202218,9.648407 12.294396,-14.967096 0.960885,-1.006641 2.159929,-1.756301 3.207234,-2.672693 0.379275,-0.331867 0.712719,-0.712719 1.069078,-1.069078 0.35636,-0.35636 0.712719,-0.712719 1.069078,-1.069079 0.178181,-0.178181 0.421849,-0.309157 0.534541,-0.53454 0.07968,-0.159366 0,-0.712719 0,-0.534538 0,3.920945 -0.690317,4.398489 -2.138156,8.018087 -0.565394,1.413481 -1.105636,2.837696 -1.603619,4.276312 -1.105868,3.194736 -2.213012,6.390479 -3.207234,9.621703 -1.515785,4.926301 -0.461404,4.701148 -3.741772,9.621702 -0.356359,0.534538 -1.069078,0.712719 -1.603618,1.069078 -1.751873,1.167913 -0.961181,1.069078 -2.138156,1.069078 -0.178179,0 -0.408546,0.125992 -0.534538,0 -4.459219,-4.459216 -2.375405,-10.600179 -1.603618,-17.105249 0.66716,-5.6232 2.137285,-11.14014 3.741774,-16.570711 0.722855,-2.446594 2.177489,-4.61492 3.207234,-6.949008 1.64319,-3.724564 3.409416,-7.403222 4.81085,-11.225318 0.56552,-1.542328 0.549601,-3.252417 1.069078,-4.810853 0.342736,-1.028205 0.03989,2.288154 -0.534538,3.207234 -13.858149,18.963785 -6.444408,7.999923 -17.639789,26.192414 -1.761955,2.86318 -3.640846,5.6549 -5.34539,8.552624 -0.09034,0.15358 0,0.712719 0,0.53454 0,-2.436984 -0.04839,-5.248968 0.534538,-7.483546 2.117286,-8.116263 7.871065,-13.363453 13.898017,-19.243407 3.266562,-3.186888 7.07354,-5.770132 10.690781,-8.552625 1.01842,-0.783399 2.138156,-1.425437 3.207234,-2.138156 0.534537,-0.356359 1.149344,-0.614807 1.603615,-1.069078 0.125992,-0.125992 0,-0.712719 0,-0.53454 0,1.603618 0.237882,3.224977 0,4.810852 -0.30136,2.009085 -1.090805,3.914156 -1.603615,5.879931 -0.556329,2.132589 -1.028584,4.286845 -1.603619,6.414468 -1.206915,4.46559 -2.503702,8.906423 -3.741772,13.363477 -0.543734,1.957443 -0.991851,3.942667 -1.603618,5.879928 -4.75135,15.045946 0.383114,-3.136067 -2.138156,6.949009 -0.0829,0.331602 -0.775846,1.896848 -0.534538,2.138156 0.125992,0.125992 0.365504,0.05635 0.534538,0 3.601021,-1.200341 1.449874,-4.739357 2.672696,-9.087165 0.824349,-2.931017 1.696622,-5.909053 3.207235,-8.552624 4.761555,-8.332722 8.825087,-13.368896 14.967092,-19.777946 2.26654,-2.365084 4.548529,-4.719989 6.949009,-6.949006 0.130569,-0.121242 0.478192,-0.169037 0.534538,0 0.342738,1.028206 0.444528,2.127152 0.534538,3.207235 0.26676,3.201082 0.63811,6.411192 0.53454,9.621702 -0.1858,5.759688 -3.05494,13.712341 -4.276313,18.708867 -0.995844,4.073903 -1.776481,8.197424 -2.672693,12.294396 -1.300996,5.9474 -1.069078,3.10764 -1.069078,8.018087 0,0.356359 0,0.712719 0,1.069078 0,0.178178 -0.125992,0.408546 0,0.534538 0.125991,0.125992 0.408545,0.125992 0.534537,0 0.125992,-0.125992 -0.0512,-0.363874 0,-0.534538 0.485722,-1.619073 1.158854,-3.180053 1.603619,-4.810852 0.625485,-2.293448 1.003556,-4.648774 1.603615,-6.949006 0.666189,-2.553724 2.308535,-7.588528 3.207235,-10.156243 0.688958,-1.968455 1.125328,-4.056841 2.138158,-5.879931 0.79778,-1.436007 2.15558,-2.479789 3.20723,-3.741772 0.73039,-0.876469 1.33142,-1.865952 2.13816,-2.672696 1.32518,-1.325184 1.40727,-0.760002 2.67269,-1.603616 0.20967,-0.139777 0.30916,-0.421849 0.53454,-0.53454 0.40727,-0.203634 1.55066,0.375655 1.60362,0.53454 0.45427,1.362813 0.2386,2.870594 0.53454,4.276312 0.41852,1.987984 1.17205,3.894736 1.60362,5.879928 0.46047,2.118178 0.68131,4.281784 1.06907,6.414471 1.2765,7.020714 2.09702,11.595306 3.74178,18.174327 1.11231,4.449247 -0.0369,-0.645247 1.06908,2.672694 0.0563,0.169037 -0.126,0.408548 0,0.53454 0.12599,0.125992 0.49132,0.17286 0.53453,0 0.17287,-0.691438 0,-1.425437 0,-2.138156 0,-1.603618 0,-3.207234 0,-4.810852 0,-1.781797 0,-3.563594 0,-5.345391 0,-0.712718 -0.0418,-1.426667 0,-2.138156 0.3725,-6.332344 -0.22516,-5.964142 2.13816,-10.69078 0.28731,-0.574612 0.6578,-1.110083 1.06908,-1.603619 0.48395,-0.580736 1.06908,-1.069078 1.60362,-1.603615 0.17818,-0.178181 0.30916,-0.647229 0.53454,-0.534541 0.35635,0.178181 0.4279,0.685192 0.53454,1.069078 0.99064,3.566316 2.36488,9.362318 3.20723,13.363477 1.25151,5.944661 0.23358,3.674407 1.60362,6.414469 0.17818,0.356359 0.25281,0.787352 0.53454,1.069078 0.12599,0.125992 0.50933,0.176389 0.53453,0 0.17639,-1.234721 0,-2.494516 0,-3.741772 0,-2.138156 0,-4.276312 0,-6.414469 0,-3.240317 -0.14183,-6.40892 0.53454,-9.621705 0.34824,-1.654101 1.1179,-3.191777 1.60362,-4.81085 0.58377,-1.945883 0.87433,-3.98378 1.60362,-5.87993 0.18091,-0.470376 0.78953,-0.649751 1.06908,-1.069078 2.69304,-4.039563 -0.9386,-0.425109 3.20723,-3.741772 0.43601,-0.348808 0.77825,-1.153562 1.60362,-0.53454 1.16049,0.87037 2.62797,5.741289 2.67269,5.87993 1.31512,4.076862 2.30668,8.258204 3.74177,12.294399 1.41887,3.990544 2.91678,7.971705 4.81086,11.759859 1.32621,2.652424 3.13081,5.039849 4.81085,7.483546 2.11471,3.075943 0.0144,-0.520144 2.13816,1.603616 0.12599,0.125992 0,0.712718 0,0.53454 0,-3.122051 0.16903,-0.2711 -1.06908,-4.810852 -0.23906,-0.876528 -0.31419,-1.79128 -0.53454,-2.672694 -0.13666,-0.546632 -0.42404,-1.051105 -0.53454,-1.603619 -0.0699,-0.349438 0.0864,-0.723357 0,-1.069078 -0.0966,-0.386524 -0.40855,-0.691102 -0.53454,-1.069078 -0.0564,-0.169034 0.12599,-0.408546 0,-0.534537 -0.12599,-0.125992 -0.47819,-0.169037 -0.53454,0 -0.16904,0.507108 0,1.069078 0,1.603615 0,0.35636 -0.0864,0.723361 0,1.069078 0.0966,0.386527 0.40855,0.691103 0.53454,1.069078 0.0563,0.169037 -0.12599,0.408549 0,0.534541 0.12599,0.125992 0.40855,-0.125992 0.53454,0 0.12599,0.125992 -0.0797,0.375168 0,0.534537 0.33026,0.660533 0.51609,0.534541 1.06908,0.534541 0.17818,0 0.40854,0.125992 0.53453,0 0.126,-0.125992 0.0252,-0.358151 0,-0.534541 -0.15327,-1.07293 -0.38126,-2.134301 -0.53453,-3.207234 -0.20316,-1.422093 -0.42437,-2.844011 -0.53454,-4.276312 -0.0683,-0.888275 0,-1.781797 0,-2.672694 0,-0.356359 0.11269,-0.731006 0,-1.069078 -0.55616,-1.668468 -0.35636,0.178179 -1.06908,-0.53454 -0.12599,-0.125992 0.12599,-0.408546 0,-0.534538 -0.12599,-0.125992 -0.35636,0 -0.53454,0 -0.17818,0 -0.35636,0 -0.53454,0 -0.17818,0 -0.35636,0 -0.53454,0 -0.17818,0 -0.42763,-0.142544 -0.53454,0 -5.22044,6.960595 3.70905,-3.375239 -2.13815,4.81085 -0.37341,0.522772 -1.14935,0.614807 -1.60362,1.069078 -0.28173,0.281728 -0.20303,0.848074 -0.53454,1.069078 -0.29651,0.197673 -0.71272,0 -1.06908,0 -0.17818,0 -0.35636,0 -0.53454,0 -0.17818,0 -0.38628,0.09884 -0.53454,0 -0.83865,-0.559101 -1.31796,-1.552305 -2.13815,-2.138156 -0.84544,-0.603882 -1.88386,-0.927473 -2.6727,-1.603616 -0.48777,-0.418092 -0.66775,-1.10196 -1.06908,-1.603618 -0.31482,-0.393533 -0.71271,-0.712719 -1.06907,-1.069078 -0.35636,-0.356359 -0.67555,-0.75425 -1.06908,-1.069078 -0.50166,-0.401325 -1.14935,-0.614807 -1.60362,-1.069078 -0.69391,-0.693907 -0.53454,-1.291307 -0.53454,-2.138156 0,-0.178181 0,-0.712719 0,-0.534541 0,2.463131 -0.0773,1.867591 1.06908,5.879931 0.61917,2.167096 1.38012,4.291957 2.13816,6.414468 0.134,0.375211 0.25281,0.787353 0.53454,1.069078 0.45427,0.454271 1.029,0.781773 1.60361,1.069078 0.15937,0.07968 0.35636,0 0.53454,0 0.35636,0 0.71272,0 1.06908,0 0.35636,0 0.73101,0.112692 1.06908,0 0.78652,-0.262173 0.53454,-1.024096 0.53454,-1.603615 0,-2.138157 0,-4.276313 0,-6.414469 0,-0.53454 0,-1.069078 0,-1.603618 0,-0.712719 -0.11717,-1.435134 0,-2.138156 0.0592,-0.355124 0.62472,-1.38144 1.06907,-1.603616 0.15937,-0.07968 0.35636,0 0.53454,0 0.17819,0 0.40855,-0.125995 0.53454,0 0.28173,0.281726 0.39681,0.695219 0.53454,1.069078 1.06908,3.029053 2.13816,6.058109 3.20724,9.087162 0.17818,1.069078 0.2158,2.171338 0.53454,3.207234 0.39906,1.296969 0.99675,2.528057 1.60361,3.741775 0.11269,0.22538 0.42185,0.309158 0.53454,0.534538 0.15937,0.318738 -0.25198,0.817094 0,1.069078 0.126,0.125992 0.4782,0.169037 0.53454,0 0.16904,-0.507109 0.0444,-1.070925 0,-1.603616 -0.11123,-1.334754 -0.63403,-6.277898 -1.06908,-8.018087 -0.36556,-1.462259 -0.75163,-0.860184 -1.60361,-2.138156 -0.0988,-0.148254 -0.17818,-0.534538 0,-0.534538 0.17818,0 -0.0221,0.357736 0,0.534538 0.15627,1.250191 0.28744,2.506321 0.53453,3.741775 0.28816,1.440772 0.60445,2.882405 1.06908,4.276312 0.25199,0.755951 0.75519,1.405742 1.06908,2.138156 0.22196,0.517895 0.31258,1.08572 0.53454,1.603616 0.31389,0.732417 0.77314,1.398307 1.06908,2.138156 0.0662,0.165436 -0.12599,0.408548 0,0.53454 0.12599,0.125992 0.35636,0 0.53454,0 0.17818,0 0.40855,0.125992 0.53454,0 0.12599,-0.125992 0,-0.356359 0,-0.53454 0,-7.618579 0.20966,0.817893 -0.53454,-5.879928 -0.0787,-0.708361 0,-1.425438 0,-2.138156 0,-0.534541 -0.12965,-2.122197 0,-1.603619 1.28138,5.125546 1.02513,5.484376 1.60362,10.690781 0.8342,7.507822 0.25189,1.228762 1.60361,10.690783 0.0504,0.352777 -0.15937,0.75034 0,1.069078 0.0797,0.159366 0.35636,0 0.53454,0 0.17818,0 0.40855,0.125992 0.53454,0 0.12599,-0.125992 0,-0.356359 0,-0.53454 0,-0.534538 0.0532,-1.071732 0,-1.603616 -0.12537,-1.25367 -0.30916,-2.502178 -0.53454,-3.741775 -0.77814,-4.279767 -0.36171,0.140708 -1.06908,-4.810852 -0.10079,-0.705554 0,-1.425438 0,-2.138156 0,-0.178179 -0.1069,0.391996 0,0.53454 0.45357,0.604761 1.26555,0.927473 1.60362,1.603616 1.4175,2.835008 0.91796,5.624147 2.13816,8.552627 0.29075,0.697801 1.22856,0.947266 1.60361,1.603616 0.36449,0.637857 0.2617,1.456047 0.53454,2.138156 0.0597,0.149108 0.70745,0.89617 1.06908,0.53454 0.12599,-0.125992 0,-0.356359 0,-0.53454 0,-0.35636 0.0273,-0.713769 0,-1.069078 -0.15094,-1.962261 -0.43626,-3.914326 -0.53454,-5.879931 -0.0801,-1.601615 0,-3.207234 0,-4.81085 0,-1.425437 0.12905,-2.85673 0,-4.276312 -0.22814,-2.509494 -0.80529,-4.977551 -1.06908,-7.483546 -0.0933,-0.886005 0,-1.781797 0,-2.672697 0,-0.712719 0,-1.425437 0,-2.138156 0,-0.534538 0,1.069078 0,1.603618 0,1.247257 0,2.494516 0,3.741772 0,3.207234 0.13932,6.417495 0,9.621703 -0.10091,2.320986 -0.38,4.630975 -0.53454,6.949008 -0.0237,0.355571 0.11269,0.731007 0,1.069078 -0.66053,1.981595 -0.53453,-0.651576 -0.53453,1.069078 0,0.178181 0,0.712719 0,0.534541 0,-0.35636 0.11269,-0.731007 0,-1.069078 -0.0797,-0.239054 -0.35636,-0.35636 -0.53454,-0.534541 -0.17818,-0.712718 -0.48567,-1.40513 -0.53454,-2.138156 -0.13038,-1.955636 0,-3.919953 0,-5.87993 0,-0.200814 0.0133,-2.659354 0,-2.672694 -0.12599,-0.125992 -0.35636,0 -0.53454,0 -0.17818,0 -0.45486,-0.159369 -0.53454,0 -0.15937,0.318738 0.0394,0.714899 0,1.069078 -0.13914,1.252215 -0.37827,2.491581 -0.53454,3.741772 -0.20013,1.601028 -0.25414,3.221918 -0.53454,4.810852 -0.25534,1.446951 -0.6871,2.857527 -1.06908,4.276313 -0.86536,3.214216 -1.57915,6.477783 -2.67269,9.621698 -0.34132,0.9813 -1.10611,1.7606 -1.60362,2.6727 -0.57236,1.04932 -1.17454,2.09164 -1.60362,3.20723 -0.46565,1.21071 -0.57016,2.54439 -1.06908,3.74178 -2.4108,5.78594 -0.60319,0.63752 -2.67269,3.74177 -0.44201,0.66302 -0.71272,1.42544 -1.06908,2.13816 -0.17818,0.35636 -0.25281,0.78735 -0.53454,1.06908 -0.12599,0.12599 -0.35636,0 -0.53454,0 -0.37179,0 -2.47938,-0.0967 -2.67269,0 -0.22538,0.11269 -0.30916,0.42184 -0.53454,0.53454 -0.15937,0.0797 -0.35636,0 -0.53454,0 -1.05373,0 -1.21294,-0.15937 -2.13816,0.53453 -1.29065,0.96799 -1.08616,1.3577 -2.13815,2.6727 -0.6535,0.81687 -2.51418,2.32617 -3.20724,2.67269 -0.31873,0.15937 -0.72336,-0.0864 -1.06907,0 -0.38653,0.0966 -0.69111,0.40855 -1.06908,0.53454 -0.16904,0.0563 -0.37517,-0.0797 -0.53454,0 -0.22538,0.11269 -0.29549,0.45486 -0.53454,0.53454 -0.27538,0.0918 -3.17633,0 -3.74177,0 -0.5179,0 -2.88851,-0.10624 -3.20724,0 -0.37797,0.12599 -0.69915,0.38657 -1.06908,0.53454 -0.52315,0.20926 -1.08046,0.32528 -1.60361,0.53454 -0.36993,0.14797 -0.68256,0.43791 -1.06908,0.53454 -0.34572,0.0864 -0.72336,-0.0864 -1.06908,0 -0.38653,0.0966 -0.71272,0.35636 -1.06908,0.53454 -0.71272,0.17818 -1.4135,0.41376 -2.13815,0.53454 -0.35152,0.0586 -0.72336,-0.0864 -1.06908,0 -0.38653,0.0966 -0.6784,0.4564 -1.06908,0.53454 -0.52416,0.10483 -1.07946,-0.10483 -1.60362,0 -0.39068,0.0781 -0.67839,0.4564 -1.06908,0.53454 -0.87359,0.17471 -1.78179,0 -2.67269,0 -2.13816,0 -4.27631,0 -6.41447,0 -1.60362,0 -3.20723,0 -4.81085,0 -0.45257,0 -1.850787,0.0958 -2.138156,0 -0.239054,-0.0797 -0.309158,-0.42185 -0.53454,-0.53454 -0.15937,-0.0797 -0.35636,0 -0.534538,0 -0.178181,-0.17818 -0.324877,-0.39477 -0.534541,-0.53454 -0.890135,-0.59343 -2.381509,-0.98433 -3.207234,-1.60362 -0.403174,-0.30238 -0.712718,-0.71272 -1.069078,-1.06908 -0.178178,-0.17818 -0.309157,-0.42185 -0.534537,-0.53454 -1.738564,-0.86928 -1.271498,-0.13494 -2.672697,-1.06907 -0.209664,-0.13978 -0.356359,-0.35636 -0.534538,-0.53454 -1.06908,-1.06908 -2.223301,-2.05931 -3.207236,-3.20724 -0.742493,-0.86624 -1.395664,-1.80645 -2.138156,-2.6727 -0.655955,-0.76528 -1.425438,-1.42543 -2.138157,-2.13815 -0.356359,-0.35636 -0.675544,-0.75425 -1.069078,-1.06908 -0.501658,-0.40132 -1.149344,-0.61481 -1.603615,-1.06908 -0.62996,-0.62996 -1.023829,-1.46173 -1.603619,-2.13815 -0.491966,-0.57396 -1.150046,-0.99886 -1.603616,-1.60362 -0.106907,-0.14254 0.07969,-0.37517 0,-0.53454 -0.112691,-0.22538 -0.356359,-0.35636 -0.53454,-0.53454 -0.178178,-0.17818 -0.318463,-0.40489 -0.534538,-0.53454 -0.05225,-0.0313 -2.305597,-0.86942 -2.672696,-1.60361 -0.251984,-0.50397 -0.39788,-1.05699 -0.534538,-1.60362 -0.04321,-0.17286 0.125992,-0.40855 0,-0.53454 -0.125992,-0.12599 -0.375171,0.0797 -0.53454,0 -0.22538,-0.11269 -0.324874,-0.39476 -0.534538,-0.53454 -0.331507,-0.221 -0.737571,-0.31353 -1.069078,-0.53454 -0.400965,-0.26731 -3.12855,-3.108876 -3.207234,-3.207232 -0.497784,-0.622231 -0.505627,-1.574702 -1.069078,-2.138156 -0.281728,-0.281728 -0.727435,-0.329554 -1.069078,-0.53454 -0.550886,-0.330531 -1.149347,-0.614807 -1.603618,-1.069078 -4.172329,-4.172329 -0.163341,-0.574146 -2.138157,-3.207234 -1.156017,-1.541357 -0.772308,-0.693053 -2.138156,-1.603616 -0.209663,-0.139777 -0.356359,-0.356359 -0.53454,-0.53454 -0.178178,-0.178179 -0.421846,-0.309158 -0.534538,-0.534538 -0.07968,-0.159369 0.07968,-0.375171 0,-0.534541 -0.112691,-0.225382 -0.356359,-0.356359 -0.53454,-0.534537 -0.178178,-0.178181 -0.309158,-0.421849 -0.534538,-0.534541 -0.159369,-0.07968 -0.408548,0.125992 -0.53454,0 -0.125992,-0.125992 0.125992,-0.408545 0,-0.53454 -0.267269,-0.267269 -1.336347,0.267272 -1.603616,0 -1.309611,-2.619221 0.174869,-0.447103 -1.069078,-1.069078 -0.225383,-0.112689 -0.356359,-0.712719 -0.53454,-0.534538 -0.251984,0.251984 0,0.712719 0,1.069078 0,0.534538 0.104833,1.079458 0,1.603619 -0.07814,0.390684 -0.437907,0.682551 -0.534538,1.069078 -0.17286,0.691438 0.22538,1.462011 0,2.138156 -0.07969,0.239051 -0.421849,0.309158 -0.53454,0.534538 -0.07969,0.159369 0.125992,0.408548 0,0.53454 -0.125992,0.125992 -0.35636,0 -0.534538,0 -0.704054,0 -0.887024,0.07968 -1.603618,-0.53454 -0.956601,-0.819947 -1.781797,-1.781797 -2.672694,-2.672694 -0.35636,-0.35636 -0.754253,-0.675548 -1.069078,-1.069078 -0.401328,-0.501661 -0.750343,-1.045827 -1.069078,-1.603619 -0.395346,-0.691853 -0.612119,-1.485357 -1.069078,-2.138156 -0.798047,-1.140065 -2.012927,-1.981946 -2.672697,-3.207234 -0.614987,-1.142119 -0.570166,-2.544387 -1.069078,-3.741774 -4.028797,-9.669111 1.556451,8.945665 -4.276312,-8.552625 -0.398423,-1.195266 -0.309158,-2.502175 -0.534538,-3.741772 -0.793829,-4.366058 -0.53454,0.329282 -0.53454,-5.34539 0,-0.8909 0,-1.781797 0,-2.672696 0,-0.178181 -0.125992,-0.408546 0,-0.534541 0.966219,-0.966218 1.995006,-0.332499 3.207234,-0.534537 0.393002,-0.0655 0.678394,-0.456401 1.069078,-0.534541 0.524158,-0.10483 1.091623,0.153602 1.603619,0 1.299747,-0.389921 2.528056,-0.996757 3.741771,-1.603615 0.929273,-0.464635 1.757924,-1.111049 2.672697,-1.603619 1.403196,-0.755565 2.899717,-1.335143 4.276312,-2.138156 0.769538,-0.448897 1.413203,-1.085792 2.138156,-1.603616 0.522772,-0.373409 1.101958,-0.667752 1.603616,-1.069078 0.787066,-0.629652 1.299504,-1.579054 2.138156,-2.138156 0.663014,-0.44201 1.489739,-0.605922 2.138156,-1.069078 0.615146,-0.439388 1.01332,-1.131377 1.603618,-1.603618 1.376606,-1.101283 0.680683,-0.17017 2.138157,-0.534538 0.386527,-0.09663 0.691102,-0.408548 1.069078,-0.53454 0.346337,-0.115446 2.235067,0 2.672696,0 0.178178,0 0.365501,0.05635 0.534538,0 0.377976,-0.125992 0.691102,-0.408546 1.069078,-0.534538 0.696955,-0.232317 1.481063,-0.205991 2.138156,-0.53454 0.450763,-0.22538 0.631513,-0.819039 1.069078,-1.069078 0.833104,-0.476057 1.859018,-0.560531 2.672696,-1.069078 1.093687,-0.683554 2.591758,-2.879262 3.741772,-3.741772 2.16031,-1.620235 0.253916,-0.08464 1.603619,-0.534541 3.871888,-1.290629 -0.842759,0.15411 1.603615,-1.069078 0.318739,-0.159369 0.817095,0.251984 1.069078,0 0.125992,-0.125992 -0.125992,-0.408545 0,-0.534537 0.146262,-0.146262 1.848176,0.144989 2.138157,0 0.225382,-0.112692 0.324876,-0.394764 0.53454,-0.534541 0.331507,-0.221004 0.737571,-0.313534 1.069078,-0.534537 0.715888,-0.477259 0.534538,-0.873067 0.534538,-1.603619 0,-0.178178 -0.125992,-0.408546 0,-0.534538 0.125992,-0.125994 0.454855,0.159367 0.53454,0 0.159369,-0.318738 0,-0.712718 0,-1.069078 0,-0.356359 0,-0.712718 0,-1.06908 0,-0.178179 0,-0.35636 0,-0.534538 0,-0.178181 -0.159369,-0.454856 0,-0.53454 0.661244,-0.330621 1.651765,0.210277 2.138156,0.53454 0.209664,0.139777 0.337772,0.377126 0.53454,0.534538 0.695675,0.55654 1.324042,1.24179 2.138157,1.603618 0.830233,0.368993 1.766829,0.464857 2.672693,0.53454 7.095869,0.545836 2.032223,0.235001 5.879929,-0.53454 0.34944,-0.06989 0.72336,0.08643 1.06908,0 0.38652,-0.09663 0.68255,-0.437906 1.06908,-0.534538 0.34572,-0.08643 0.731,0.112689 1.06908,0 0.23905,-0.07968 0.30915,-0.421849 0.53453,-0.53454 0.30686,-0.153432 2.21769,0.113752 2.6727,0 0.38652,-0.09663 0.71272,-0.356359 1.06908,-0.53454 2.58774,-1.293871 -0.56346,0.422592 2.13815,-1.603616 0.31874,-0.239053 0.73758,-0.313534 1.06908,-0.534539 0.9908,-0.660531 0.049,-0.534539 1.06908,-0.534539 0.17818,0 0.35636,0 0.53454,0 0.17818,0 0.4357,-0.148255 0.53454,0 0.31255,0.468821 0.32527,1.080463 0.53454,1.603616 0.14797,0.369927 0.38657,0.699153 0.53454,1.069078 1.27864,3.196611 1.99192,8.404987 2.67269,11.225321 0.71272,2.672696 1.42544,5.34539 2.13816,8.018086 0.17818,1.247257 0.26122,2.511854 0.53454,3.741772 0.44071,1.983184 1.20519,3.887822 1.60362,5.879931 0.13977,0.698878 0,1.425437 0,2.138156 0,0.712718 0,1.425437 0,2.138156 0,0.178181 0.12599,0.408548 0,0.53454 -0.126,0.125992 -0.43571,0.148254 -0.53455,0 -0.31254,-0.468823 -0.30569,-1.088728 -0.53453,-1.603618 -0.48545,-1.092248 -1.17455,-2.091637 -1.60362,-3.207234 -0.46566,-1.210707 -0.65888,-2.511171 -1.06908,-3.741775 -1.42544,-4.276312 -3.56359,-8.552624 -4.81085,-12.828936 -0.40223,-1.37907 -0.26575,-2.865152 -0.53454,-4.276313 -0.61475,-3.227445 -1.67352,-6.369251 -2.13816,-9.621702 -0.10079,-0.705556 0,-1.425438 0,-2.138156 0,-0.17818 -0.12599,-0.408547 0,-0.534539 0.126,-0.125992 0.36551,-0.05635 0.53454,0 0.37798,0.125992 0.75459,0.289931 1.06908,0.534539 1.2967,1.008542 2.58018,2.045645 3.74177,3.207234 0.45428,0.454271 0.7645,1.037971 1.06908,1.603618 0.94446,1.753995 1.72824,3.591394 2.6727,5.345391 0.30458,0.565644 0.75034,1.045826 1.06908,1.603615 2.29352,4.587042 -0.12848,-0.03595 2.13815,3.741775 0.91893,1.53154 0.16494,1.192781 2.13816,2.672694 0.14254,0.106907 0.35636,0 0.53454,0 0.17818,0 0.53454,0.178181 0.53454,0 0,-0.39842 -0.3776,-0.702871 -0.53454,-1.069078 -2.80976,-6.556097 -2.6727,-4.12695 -2.6727,-7.483547 0,-0.712718 -0.17286,-1.446718 0,-2.138156 0.0432,-0.17286 0.35636,0 0.53454,0 1.11808,0 0.64805,-0.148254 1.60362,1.603619 4.36513,8.002738 -0.2625,0.580215 4.81085,8.552624 0.86359,1.357066 2.15659,3.225662 3.20723,4.276312 0.25536,0.25536 1.37564,0.762519 1.60362,0.534538 0.12599,-0.125992 0,-0.356359 0,-0.534538 0,-3.087835 0.1958,-2.0853 -1.06908,-5.87993 -0.12599,-0.377976 -0.43791,-0.682551 -0.53454,-1.069078 -0.0864,-0.345718 -0.0442,-1.422686 0,-1.069079 0.22211,1.776857 0.14609,3.59735 0.53454,5.345391 0.33025,1.486117 1.09695,2.840736 1.60362,4.276312 1.12517,3.187988 2.02018,6.456235 3.20723,9.621702 0.47647,1.270577 0.93037,2.563591 1.60362,3.741775 0.0884,0.154704 0.53454,0.178181 0.53454,0 0,-0.251984 -0.40489,-0.318463 -0.53454,-0.534538 -0.40997,-0.683289 -0.71272,-1.425437 -1.06908,-2.138156 -0.53454,-0.712721 -1.10943,-1.396886 -1.60361,-2.138159 -0.22101,-0.331507 -0.25282,-0.787349 -0.53454,-1.069078 -0.80675,-0.806741 -1.80646,-1.395664 -2.6727,-2.138156 -0.76528,-0.655955 -1.42544,-1.425437 -2.13815,-2.138156 -0.17818,-0.178178 -0.39477,-0.324874 -0.53454,-0.534538 -0.22101,-0.331507 -0.31354,-0.737571 -0.53454,-1.069078 -0.13978,-0.209663 -0.35636,-0.356359 -0.53454,-0.53454 -0.17818,-0.178178 -0.29549,-0.454853 -0.53454,-0.534538 -0.33807,-0.112691 -0.72336,0.08643 -1.06908,0 -0.38652,-0.09663 -0.71272,-0.356359 -1.06908,-0.53454 -0.35636,-0.178178 -0.71272,-0.356359 -1.06907,-0.534538 -0.71272,-0.356359 -1.47515,-0.62707 -2.13816,-1.069078 -0.74127,-0.494181 -1.4132,-1.085794 -2.13816,-1.603618 -0.52277,-0.373407 -1.10195,-0.66775 -1.60361,-1.069078 -2.64488,-2.115902 0.64015,0.105611 -2.13816,-2.672694 -0.28173,-0.281728 -0.78735,-0.252812 -1.06908,-0.53454 -0.28173,-0.281726 -0.25281,-0.78735 -0.53454,-1.069078 -0.62996,-0.62996 -1.50819,-0.973657 -2.13815,-1.603616 -0.28173,-0.281729 -0.31354,-0.737571 -0.53454,-1.069078 -0.13978,-0.209664 -0.39477,-0.324877 -0.53454,-0.534541 -0.22101,-0.331507 -0.25281,-0.787349 -0.53454,-1.069078 -0.12599,-0.125992 -0.35636,0 -0.53454,0 -0.17818,-0.534537 -0.42404,-1.051105 -0.53454,-1.603615 -0.0699,-0.349441 0,-0.712719 0,-1.069078 -0.35636,-0.8909 -0.76565,-1.762409 -1.06908,-2.672697 -0.0693,-0.208002 0.083,-1.520664 0,-1.603618 -0.12599,-0.125992 -0.40854,-0.125992 -0.53454,0 -1.32148,1.32149 -2.24646,4.672285 -2.67269,5.87993 -2.53864,7.192825 -1.0163,4.311735 -5.34539,13.363477 -0.6198,1.295943 -1.18772,2.664608 -2.138158,3.741772 -1.752524,1.986195 -3.938884,3.54299 -5.879928,5.34539 -0.553959,0.51439 -1.069078,1.069078 -1.603619,1.603619 -0.890897,0.53454 -1.861404,0.954585 -2.672694,1.603618 -0.139136,0.111308 0.178179,0.534538 0,0.534538 -0.178181,0 0,-0.35636 0,-0.534538 0,-0.178181 0,-0.356359 0,-0.53454 0,-2.071323 -0.0663,-3.676849 0.534538,-5.879931 0.169037,-0.619797 0.738547,-1.052732 1.069078,-1.603616 0.204986,-0.341643 0.38657,-0.699153 0.534541,-1.069078 0.209258,-0.523152 0.22199,-1.134795 0.534537,-1.603618 0.09884,-0.148254 0.35636,0 0.534541,0 1.125566,0 0.960323,-0.05438 2.138156,0.53454 2.421366,1.210683 0.787349,0.252812 4.276312,3.741772 0.712716,0.712719 1.533396,1.331809 2.138156,2.138156 0.85019,1.133586 1.55343,3.64141 2.13816,4.810853 0.2873,0.574611 0.73854,1.052732 1.06907,1.603618 0.20499,0.341643 0.25282,0.78735 0.53454,1.069078 0.45427,0.454269 1.14935,0.614807 1.60362,1.069078 0.28173,0.281726 0.25281,0.78735 0.53454,1.069078 0.12599,0.125992 0.37517,-0.07968 0.53454,0 0.22538,0.112689 0.30916,0.421847 0.53454,0.534538 0.31873,0.159369 0.75034,-0.159369 1.06907,0 0.22539,0.112691 0.29549,0.454856 0.53454,0.53454 0.50711,0.169035 1.09651,-0.169037 1.60362,0 2.08172,0.693907 0.05,0.534538 2.13816,0.534538"
       id="path104"
       inkscape:connector-curvature="0" />
    <path
       style="fill:#00d300;fill-opacity:1;stroke:#00fc00;stroke-width:1.56500006;stroke-miterlimit:4;stroke-dasharray:none;stroke-opacity:1"
       id="path839"
       d="m 106.86859,143.28996 c 1.23908,3.57798 2.76327,7.04618 4.17269,10.55849 0.79794,2.25192 1.66558,4.49123 2.26091,6.8082 0.3424,1.46183 0.33309,2.97334 0.33989,4.46591 -0.007,1.96462 -0.0204,3.9292 -0.0273,5.89383 -0.011,1.97929 -0.005,3.95853 0.0105,5.93777 0.0113,1.25773 0.0175,2.51549 0.0205,3.77326 -0.01,1.47751 -0.0207,2.95505 -0.0203,4.4326 0.004,1.35224 0.0132,2.70447 0.0179,4.05672 -0.0125,1.46935 -0.0115,2.93874 -0.0162,4.40812 0.002,1.7676 -0.009,3.53519 -0.0136,5.30278 -0.0827,2.19487 0.10181,4.37492 0.48377,6.53435 0.49659,2.64408 1.13268,5.25883 1.72881,7.88181 0.49219,2.22589 0.81275,4.48641 1.15002,6.74013 0.31932,1.98773 0.75762,3.9519 1.24008,5.90549 0.37147,1.39387 0.54038,2.82537 0.85041,4.23138 0.28287,1.64541 0.3449,3.31947 0.41006,4.98488 0.0447,1.25642 0.0512,2.51369 0.0537,3.77076 -0.009,1.37906 -0.0179,2.75813 -0.0187,4.13722 0.0528,4.52432 -2.5056,4.33728 -8.16322,6.33585 -0.40308,0.14239 -0.75883,-0.39394 -1.13824,-0.59091 -1.8432,-1.21242 -3.92801,-2.3472 -5.26675,-4.16495 -1.42376,-1.93318 -1.67959,-3.01075 -2.61568,-5.29784 -2.07447,-6.07093 -3.190704,-12.37857 -3.838004,-18.74227 -0.131255,-2.16025 -0.254553,-4.32366 -0.01707,-6.48156 0.17312,-1.57291 0.542679,-3.12583 0.865997,-4.67234 0.520682,-2.28495 1.112697,-4.55229 1.698057,-6.82122 0.38837,-1.28875 0.87173,-2.54122 1.11695,-3.86792 0.15654,-1.02399 0.15795,-2.06244 0.16368,-3.09574 0.0153,-1.60442 0.0208,-3.20891 0.0249,-4.81339 -0.008,-1.74183 -0.0153,-3.48364 -0.0109,-5.22549 -0.22609,-2.60517 -1.36,-5.00245 -2.24305,-7.43008 -1.092563,-2.95227 -1.595134,-6.06935 -2.135376,-9.15757 -0.444534,-2.53498 -0.916358,-5.06735 -1.446384,-7.5863 -0.409067,-2.25705 -0.92333,-4.49372 -1.328373,-6.75175 -0.243313,-1.68655 -0.42504,-3.38183 -0.684165,-5.06647 -0.223279,-1.73526 -0.66017,-3.48495 -0.496736,-5.24222 2.766126,-8.60622 7.312454,-5.29814 9.853304,-2.2211 2.22993,3.05615 3.19066,6.83367 4.08435,10.45312 0.90676,3.86941 1.14396,7.84214 1.33333,11.7981 0.0422,2.33488 0.30754,4.65702 0.46385,6.98538 0.11781,2.0044 0.12636,4.01294 0.13533,6.02011 0.0757,2.47515 -0.19935,4.93843 -0.34947,7.4057 -0.33423,3.32349 0.19195,6.58502 0.99534,9.79854 0.58715,1.90345 3.25462,9.67289 -6.4914,2.05141 -1.56358,-1.22273 0.60537,-3.92387 0.85487,-5.89304 0.32856,-2.59302 1.60903,-14.51947 1.88216,-16.79406 0.36182,-3.01323 0.77558,-6.02001 1.16337,-9.03001 1.28016,-10.06668 2.71171,-20.11718 3.73564,-30.21457 0.0583,-1.25686 0.20446,-2.53086 0.01,-3.78474 -0.0287,-0.18479 -0.0801,-0.36572 -0.1341,-0.54474 -0.0195,-0.0647 -0.14529,-0.15173 -0.0858,-0.18379 2.32603,-1.25301 4.71456,-2.38635 7.07184,-3.57952 1.03451,4.84967 1.09704,9.82829 1.23626,14.76391 0.16536,6.4438 0.14899,12.88993 0.19205,19.33514 0.006,2.85195 0.0753,5.70333 0.0913,8.55515 0.0206,1.20144 -0.0945,2.42794 0.22453,3.60461 0.23355,0.86138 0.6701,1.73026 1.03221,2.53361 1.46251,2.58279 2.89308,5.16424 3.86454,7.97508 0.50866,1.51808 0.72296,3.0976 0.79577,4.6895 0.062,0.9778 -0.10467,1.94913 -0.46386,2.85743 -0.53587,1.15303 -0.54633,2.43901 -0.60569,3.68496 -0.0695,1.98629 -0.0543,3.9741 -0.0545,5.96123 0.0113,1.91096 0.006,3.82197 0.004,5.73295 -0.0803,1.89454 0.0779,3.76679 0.45007,5.6224 0.30341,1.29828 0.50038,2.61393 0.59973,3.94246 0.0278,1.76882 0.0428,3.5309 0.15272,5.29737 0.17516,2.43276 0.30707,4.86875 0.35071,7.30752 0.0349,2.16671 0.052,4.33364 0.058,6.50062 -0.0875,0.87825 0.12676,1.79947 -0.0366,2.67343 -0.55551,2.9718 -7.671,3.94876 -7.87276,3.96196 -0.98854,0.0647 -0.73744,-1.83898 -1.10615,-2.75847 -2.47277,-9.16104 -4.25651,-18.49698 -6.18962,-27.78454 -1.10586,-5.08945 -1.72044,-10.26807 -1.57487,-15.47552 0.11035,-2.70403 0.45186,-5.38365 0.81514,-8.06192 0.26058,-1.93546 0.35168,-3.88689 0.38976,-5.8376 0.12935,-1.85398 -0.11189,-3.69215 -0.25187,-5.53568 -0.0134,-2.79808 -0.15618,-3.96122 7.48072,-2.28944 1.18599,0.25962 0.32335,2.40652 0.48472,3.60982 0.65674,4.8972 1.28078,9.79835 1.91784,14.69814 0.8072,5.99326 2.06023,11.908 3.22333,17.83774 0.0447,0.36595 0.42445,0.87084 0.13396,1.09783 -2.17343,1.69841 -4.47732,3.34874 -7.06083,4.31511 -0.51193,0.1915 -0.7683,-0.80476 -0.99903,-1.30025 -0.4213,-0.90475 -0.653,-1.88712 -0.93147,-2.84551 -0.38687,-1.33151 -1.85453,-7.11906 -2.16487,-8.33265 -1.61799,-6.57981 -2.72301,-13.28555 -4.76927,-19.75391 -0.98164,-3.27066 -2.80666,-5.32341 -5.04546,-7.76088 -2.44438,-2.62231 -3.912693,-5.91298 -5.578051,-9.04231 -1.290371,-2.35709 -2.162252,-4.87623 -2.828671,-7.46874 -0.431703,-1.7057 -0.533662,-3.46135 -0.718151,-5.20312 -0.438888,-2.77624 -0.163129,-0.62512 7.065943,-3.59933 0.147,-0.0605 0.003,0.31813 0.0156,0.47661 0.0395,0.50725 0.0923,1.01339 0.13981,1.51995 0.34029,3.62776 0.13064,1.16592 0.47157,5.57973 0.40275,6.75607 1.85338,13.37806 3.15061,20.002 0.49578,2.47228 0.85209,4.96766 1.00008,7.48467 0.0649,1.38029 0.0324,2.76271 0.018,4.14381 -0.0225,1.88833 -0.0293,3.77679 -0.034,5.66523 -0.0744,2.29679 -0.40963,4.57114 -0.67243,6.85071 -0.23677,1.98993 -0.32698,3.99149 -0.36348,5.99371 -0.0314,1.70166 -0.0316,3.40364 -0.0249,5.1055 -0.0208,1.86607 -0.0247,3.72547 0.12784,5.58601 0.22106,1.96262 0.6529,3.88886 1.01834,5.82651 0.43521,1.53446 0.718,3.10214 1.00527,4.66899 0.37589,1.91943 0.89425,3.80497 1.22008,5.73389 0.36638,1.50181 0.65478,3.01786 0.93398,4.53773 0.27307,1.40388 0.35299,2.83213 0.61792,4.23641 0.11333,1.02124 0.46686,1.98273 0.70652,2.97511 0.39701,1.35187 0.64797,2.7439 0.89892,4.12923 0.44587,2.21468 0.82557,4.44384 1.125,6.68307 0.0534,-0.0888 0.18313,2.31019 0.48336,2.05583 0.10727,-0.0909 0.19876,-0.47722 0.0724,-0.41554 -2.21746,1.08242 -4.24221,2.54494 -6.49542,3.55085 -0.3528,0.1575 0.44414,-0.63234 0.66621,-0.9485 1.5422,-2.72382 2.59919,-5.65138 3.48908,-8.63859 0.64727,-1.99018 0.87136,-4.06013 0.98588,-6.13789 0.0786,-2.06108 0.0636,-4.12429 0.0595,-6.18645 -0.075,-4.40411 0.79482,-4.24936 7.48946,-6.5139 0.48518,-0.16412 0.67924,0.77425 0.94213,1.21381 0.3563,0.59574 0.60361,1.25022 0.90542,1.87533 1.87287,5.39112 3.36592,10.90869 4.96246,16.38708 0.55182,1.54754 0.73424,3.21491 1.31021,4.75474 0.0543,0.14505 0.38401,0.32829 0.24433,0.39516 -2.1677,1.0378 -4.30241,2.40893 -6.68919,2.69037 -0.68481,0.0808 0.41154,-1.31627 0.61731,-1.97441 1.46043,-5.80567 1.80104,-11.80548 2.82539,-17.68727 0.94406,-4.48917 1.30049,-3.74602 8.07203,-6.08787 0.16393,-0.0567 0.41697,0.92559 0.6377,1.68827 0.9463,4.56502 1.39074,4.89218 -6.60726,6.07709 -0.56702,0.084 -0.0651,-1.14456 -0.0976,-1.71684 -0.13998,-2.68315 -0.37031,-5.36031 -0.57685,-8.03881 -0.13426,-1.74119 -0.19316,-3.50064 -0.52012,-5.21873 2.32456,-0.90493 4.5323,-2.20275 6.97367,-2.7148 0.4052,-0.085 0.0236,0.82797 0.0538,1.24087 0.10685,1.45726 0.43921,2.90446 0.46228,4.36298 -2.32983,1.44099 -4.53408,3.10825 -6.98947,4.32297 -0.25765,0.12746 -0.49321,-0.31101 -0.68196,-0.52781 -0.32648,-0.37499 -0.59598,-0.79863 -0.8467,-1.22798 -1.09946,-1.88277 -1.89774,-3.97008 -2.78311,-5.95667 -0.77619,-1.68287 -1.54333,-3.38801 -2.58502,-4.92928 -0.1209,-0.17888 -0.9097,-1.3242 -1.31063,-1.44865 -0.14227,-0.0442 -0.26876,0.12858 -0.40314,0.19287 2.11491,-1.06338 4.09388,-2.45713 6.34472,-3.19015 0.45583,-0.14845 -0.42737,0.86115 -0.58422,1.31416 -0.57806,1.66945 -0.39767,1.81039 -0.81913,3.55608 -0.12809,0.53051 -0.0351,1.23607 -0.4674,1.56913 -2.37238,1.82765 -5.10741,3.12862 -7.66111,4.69293 -0.65891,-0.21075 -1.39514,-0.25764 -1.97672,-0.63226 -2.2921,-1.47643 -3.44018,-3.56411 -4.74911,-5.90089 -2.11417,-3.77436 -3.63608,-7.81152 -5.11825,-11.85966 -0.69328,-1.51093 -0.93327,-3.17486 -1.51246,-4.72325 -0.0397,-0.10616 -0.325421,-0.21678 -0.22025,-0.25904 2.30772,-0.92733 4.56995,-2.7956 7.03693,-2.48016 1.13193,0.14473 0.14167,2.27859 0.26166,3.4134 0.17511,1.65591 0.4156,3.30425 0.62339,4.95638 1.05193,7.64757 0.45163,3.45565 1.58442,11.01196 0.23636,1.57664 0.54175,3.14458 0.70675,4.73027 0.19951,1.91753 0.28895,3.92626 -0.10425,5.8358 -0.0598,0.29019 -0.24686,0.53869 -0.37029,0.80804 -2.52682,0.92398 -4.89032,2.73023 -7.58045,2.77193 -0.89157,0.0138 -0.3011,-1.76 -0.37499,-2.64861 -0.32749,-3.93833 0.0524,-7.88526 0.51475,-11.79584 0.14943,-1.26385 0.34558,-2.52174 0.51837,-3.78262 0.5144,-2.35135 0.63889,-4.91903 1.74846,-7.11199 1.39146,-2.75007 7.22058,-4.71373 8.19537,-5.09622 0.39637,-0.15553 0.66662,0.52993 0.99993,0.79489 0.30409,0.62317 0.67635,1.21746 0.91226,1.8695 0.78295,2.16401 1.13682,4.51636 1.50656,6.76683 0.78573,4.78255 1.37926,9.59009 1.95129,14.40161 1.03286,8.40034 1.94129,16.8161 2.81048,25.23488 0.0126,0.12841 0.36565,3.48697 0.33906,3.95607 -0.18696,3.29837 -6.27253,4.45834 -7.82822,4.79671 -0.70685,0.15375 -0.73903,-1.24755 -1.03294,-1.90852 -0.34345,-0.77236 -0.5828,-1.58693 -0.8742,-2.38039 -1.20873,-3.53108 -2.21586,-7.1291 -3.01521,-10.77397 -0.0188,-0.10678 -0.15184,-0.2687 -0.0565,-0.32036 2.33315,-1.26408 4.66036,-2.57631 7.14121,-3.51807 0.23734,-0.0901 0.11744,0.49399 0.17189,0.74194 0.19956,0.90874 0.37022,1.79257 0.44629,2.71984 -0.0315,0.21066 0.09,0.52574 -0.0947,0.63199 -2.33011,1.34087 -4.62636,2.89795 -7.22651,3.581 -0.52832,0.13879 -0.20897,-1.07693 -0.22755,-1.62285 -0.0253,-0.74544 0.0542,-1.49085 0.0963,-2.23553 0.0538,-0.95241 0.27151,-3.8564 0.34359,-4.83545 0.4283,-2.63843 -0.0124,-5.47261 0.82866,-8.04103 2.33062,-1.3661 4.48294,-3.09664 6.99186,-4.0983 0.37577,-0.15003 0.38212,0.72472 0.46745,1.12024 0.10613,0.49197 0.0957,1.00332 0.0992,1.5066 0.0191,2.76082 -0.33315,5.53151 -0.59896,8.27359 -0.61354,5.13359 -1.2055,10.28421 -2.24871,15.35215 -0.12964,0.38018 -0.2194,0.77639 -0.38893,1.14053 -1.25566,2.69706 -8.03409,4.46998 -8.12135,4.50149 -0.4177,0.15092 -3.20697,-2.32654 -3.50727,-2.59744 -0.39205,-0.3994 -0.79653,-0.78696 -1.17617,-1.19819 -0.0151,-0.0163 -1.653332,-1.91669 -1.789087,-2.0753 -0.262186,-0.30633 -0.450249,-0.79955 -0.84859,-0.86204 -0.05854,-0.009 -0.01159,0.11795 -0.01736,0.17692 2.281207,-1.18427 4.519497,-2.45518 6.843637,-3.55281 0.0896,-0.0423 0.15403,0.24545 0.0655,0.28982 -2.29911,1.15232 -4.65513,2.19024 -7.021739,3.19666 -0.189852,0.0807 0.332142,-0.2506 0.465077,-0.40836 0.193767,-0.22997 1.083602,-1.60316 1.207452,-1.79174 1.21218,-2.0078 2.64898,-3.8614 3.96009,-5.80011 1.36051,-1.89851 2.56385,-3.86921 3.54137,-5.98976 0.40042,-0.85313 0.78877,-1.71125 1.12867,-2.59048 0.0748,-0.19338 0.15291,-0.38578 0.21585,-0.58332 0.0222,-0.0697 -0.0293,-0.1894 0.0388,-0.21605 2.32414,-0.90905 4.69226,-1.70138 7.03839,-2.55206 -2.21661,7.05704 -4.39322,14.12938 -6.6748,21.16622 -1.676,4.6178 -2.26046,5.80571 -9.05599,6.72707 -0.65347,0.0886 -0.0974,-1.31894 -0.0613,-1.97741 0.11483,-2.09675 0.58365,-3.63216 1.06311,-5.72461 1.42544,-5.91527 3.82136,-11.52199 6.51107,-16.95801 3.36713,-5.83749 5.56835,-6.10433 12.09256,-9.73134 0.27509,0.21029 0.62265,0.35009 0.82527,0.63088 0.57033,0.79035 0.79845,2.21094 0.92664,3.09617 0.37081,2.56057 0.37639,5.17564 0.46845,7.75551 -0.0315,3.85329 0.0757,7.7285 -0.30842,11.56865 0.60292,2.60733 0.23285,0.8416 -7.02091,3.26593 -0.33905,0.11332 0.31499,-0.6419 0.4785,-0.9598 0.75805,-1.47382 1.57106,-2.91881 2.35317,-4.3799 0.70444,-1.29671 1.33134,-2.63906 2.11987,-3.88913 0.0385,-0.0611 0.8958,-1.35478 1.0992,-1.47289 2.37738,-1.38045 4.84177,-2.60531 7.26264,-3.90796 0.18028,0.28529 0.40006,0.54917 0.54082,0.85589 0.35818,0.78047 0.56932,2.08413 0.73199,2.8477 0.40863,1.91807 0.8583,3.8247 1.30217,5.73484 0.0899,0.40019 0.47662,2.23476 0.67653,2.77849 0.04,0.10864 0.14056,0.18394 0.21083,0.27591 -2.31746,1.11654 -4.58067,2.35353 -6.9524,3.34963 -0.16768,0.0704 0.1558,-0.3324 0.19245,-0.51054 0.0595,-0.28914 0.0625,-0.58708 0.0938,-0.88061 -0.004,-1.70273 -0.10977,-3.41909 -0.37558,-5.10295 -0.0146,-0.0551 -0.0756,-0.21235 -0.0437,-0.16515 1.84134,2.72874 -3.01257,1.6614 7.01278,-3.17795 0.16231,-0.0784 -0.0183,0.36 -0.0242,0.54013 -0.0188,0.56796 -0.015,0.47717 -0.003,0.96568 0.0204,0.0184 0.086,0.0436 0.0611,0.0551 -7.54121,3.50133 -7.37921,5.46634 -7.07463,0.5989 0.0412,-0.60582 0.27147,-1.08712 0.59057,-1.58458 0,0 7.33135,-3.04961 7.33135,-3.04961 v 0 c -0.4559,0.28953 -0.72261,0.55809 -0.84585,1.11345 -0.66539,5.03348 2.15296,1.24071 -7.21311,6.4245 -0.0227,0.0126 0.0419,0.0305 0.0629,0.0458 0.006,-0.15812 0.0241,-1.54221 0.0243,-1.54237 1.92141,-1.50032 6.10311,-7.44216 7.15574,-3.91288 0.14433,1.75435 0.28406,3.50998 0.37504,5.2679 -0.009,0.30622 -0.0229,0.61233 -0.0277,0.91864 -0.004,0.25839 0.21924,0.63689 0.001,0.77525 -8.06374,5.11173 -6.90124,5.70648 -8.00727,0.46488 -0.63938,-2.8742 -0.17954,-0.85309 -0.879,-3.80583 -0.35699,-1.50697 -0.5875,-3.17766 -1.31044,-4.56207 15.00709,-8.99964 7.37659,-4.99849 5.83325,-3.31761 -1.2519,1.36346 -1.98346,3.10469 -2.87062,4.70249 -0.5384,1.01066 -1.09279,2.01284 -1.62242,3.02814 -0.21913,0.42007 -0.43124,0.84388 -0.63693,1.2707 -0.13842,0.28722 -0.12245,0.70593 -0.3952,0.87104 -7.47551,4.52534 -7.66292,6.48839 -7.27119,3.5299 0.83326,-3.7563 0.48253,-7.75963 0.66073,-11.57582 -0.084,-2.14344 -0.0983,-3.30555 -0.30198,-5.42576 -0.0946,-0.98492 -0.2575,-3.71076 -1.00281,-4.57178 -0.09,-0.10402 -0.27108,-0.0472 -0.40662,-0.0708 11.69374,-6.99205 6.20417,-4.11455 4.22119,-2.22871 -1.22369,1.16374 -2.27817,2.49689 -3.14117,3.94742 -2.81806,5.37105 -5.37209,10.92923 -6.76415,16.86062 -0.5504,2.71979 -0.69938,2.96136 -0.89352,5.45502 -0.0376,0.48241 0.32655,1.13655 -0.0412,1.45102 -1.95512,1.67183 -4.33825,2.76579 -6.50738,4.14869 0.32293,-0.38455 0.72278,-0.71589 0.96879,-1.15364 0.45165,-0.80366 0.73631,-1.69034 1.10446,-2.5355 2.40546,-6.85722 4.61222,-13.80694 6.28188,-20.88231 2.4566,-1.3658 4.91319,-2.7316 7.36979,-4.09739 -0.0559,0.0369 -0.1336,0.0529 -0.16765,0.11057 -0.5932,1.00398 -0.73569,2.26829 -1.40357,3.24364 -0.95391,2.14317 -2.0722,4.17775 -3.46011,6.0759 -0.54159,0.89848 -1.19552,1.64285 -1.81545,2.48544 -0.77191,1.04915 -0.75719,1.16199 -1.47294,2.27545 -0.22976,0.35743 -0.47463,0.70493 -0.71194,1.0574 -0.36995,0.59614 -0.78852,1.16375 -1.11977,1.78224 -0.11501,0.21473 -0.0648,0.56015 -0.27946,0.67523 -2.40694,1.2903 -4.8996,2.42454 -7.42807,3.45656 -0.123568,0.0504 -0.185002,-0.31179 -0.07876,-0.39258 2.17828,-1.65641 4.49771,-3.1185 6.74656,-4.67776 1.36211,1.40006 2.28933,3.20257 3.83926,4.4398 0.82384,0.68158 1.42292,1.26575 2.37419,1.74601 0.30389,0.15342 1.22449,0.12397 0.96253,0.34136 -1.83555,1.52323 -4.00565,2.59114 -6.02538,3.86005 -0.22824,0.14339 0.48732,-0.26668 0.64903,-0.48232 0.23496,-0.31334 0.33822,-0.70651 0.50733,-1.05977 1.29986,-5.03069 1.94081,-10.21716 2.52237,-15.37111 0.23544,-2.65869 0.52485,-5.34454 0.40491,-8.01948 -0.0198,-0.44152 -0.14859,-0.87521 -0.15193,-1.31716 -2.6e-4,-0.0508 0.0944,-0.0375 0.14154,-0.0563 2.19813,-1.33358 4.39626,-2.66716 6.59439,-4.00075 -0.86392,1.04745 -0.77352,2.63852 -0.88912,3.9165 -0.15455,1.7085 -0.20223,2.20964 -0.36571,3.96988 -0.13683,1.68955 -0.26921,3.08791 -0.32875,4.78515 -0.0243,0.69192 -0.0302,1.38466 -0.0204,2.07694 0.005,0.33628 0.33257,0.80415 0.0642,1.00691 -2.07593,1.56862 -4.43201,2.72972 -6.69912,4.00655 -0.13561,0.0764 0.1775,-0.25572 0.26625,-0.38357 0.0151,-0.99182 0.062,-0.61318 -0.17359,-1.69334 -0.86207,-3.95304 -1.63034,-0.8974 6.56897,-5.40158 0.0604,-0.0332 -0.0722,0.11746 -0.10833,0.17619 0.33142,3.69324 1.51825,7.2663 2.67887,10.76513 0.30245,0.7399 0.55128,1.50406 0.90734,2.2197 0.2195,0.44116 1.15887,0.88573 0.81173,1.23542 -1.70334,1.71584 -4.02259,2.68339 -6.03388,4.02508 0.17488,-0.2506 0.4601,-0.4531 0.52464,-0.7518 0.10867,-0.50296 -0.11995,-3.85634 -0.12904,-4.02097 -0.56597,-8.48123 -1.42813,-16.93965 -2.4913,-25.37281 -0.57818,-4.7749 -1.18903,-9.53695 -2.09711,-14.26319 -0.43212,-2.24904 -0.81316,-4.30578 -1.69413,-6.41309 -0.21405,-0.51202 -0.55331,-0.96218 -0.82997,-1.44327 -2.79876,-1.05891 -1.14018,-0.23617 5.3013,-3.94635 0.33627,-0.19368 -0.64307,0.46004 -0.86689,0.77705 -0.74542,1.05581 -1.19246,2.76534 -1.4832,3.93406 -0.25868,1.03982 -0.44688,2.09591 -0.67032,3.14387 -0.78565,5.05419 -1.53433,10.14966 -0.93285,15.27017 0.087,0.74071 0.91552,1.65138 0.40983,2.19955 -1.74824,1.8951 -4.27969,2.87668 -6.41953,4.31501 0.2512,-0.17868 0.62488,-0.25592 0.75359,-0.53603 0.68403,-1.48862 0.67142,-4.46018 0.58485,-5.82299 -0.10176,-1.60203 -0.37891,-3.18826 -0.59707,-4.77862 -0.42542,-3.10123 -1.18472,-7.88077 -1.66558,-10.96687 -0.28864,-1.61577 -0.5746,-3.23202 -0.8659,-4.84731 -0.19768,-1.09623 -1.275271,-2.40056 -0.60103,-3.28723 7.49148,-9.85176 6.33469,-6.40282 7.2843,-2.59332 0.2421,0.97123 0.53018,1.93042 0.79528,2.89564 1.36716,4.02947 2.76976,8.06142 4.9666,11.73701 1.21008,2.02463 2.52585,4.15087 4.77126,5.19246 0.52691,0.24441 1.15814,0.0906 1.73721,0.13585 -1.81084,1.16434 -3.44137,2.6744 -5.43252,3.49302 -0.49049,0.20166 0.42566,-0.97623 0.55923,-1.48946 0.31074,-1.194 0.41706,-2.43381 0.70392,-3.63377 0.11902,-0.4979 -0.0155,-1.17122 0.38837,-1.48586 2.26928,-1.76813 4.89439,-3.02467 7.34159,-4.537 0.21984,0.0948 0.46727,0.14162 0.65953,0.28426 0.43151,0.32017 1.08483,1.31485 1.31698,1.69174 0.99055,1.60816 1.72565,3.35582 2.51144,5.06729 0.8683,1.90988 1.64508,3.97411 2.8393,5.71509 0.21663,0.31581 0.45871,0.62683 0.76392,0.85816 0.0888,0.0673 0.42585,-0.0887 0.33333,-0.0265 -2.09825,1.40978 -4.25645,2.7282 -6.38468,4.0923 0.0536,-0.1636 0.15683,-0.31871 0.16072,-0.49081 0.0182,-0.80702 -0.18511,-1.60381 -0.27978,-2.40546 -0.57782,-4.89286 -0.91466,-2.92189 6.70496,-7.13823 0.12125,4.4529 0.47373,8.90197 0.98818,13.32573 0.54198,4.26467 0.72102,1.7665 -6.70338,6.11299 -0.13467,0.0788 0.0497,-0.31009 0.0443,-0.46605 -0.0309,-0.89586 -0.23575,-1.7861 -0.40556,-2.66161 -1.0667,-3.61729 -1.87756,-0.31081 6.26195,-5.08783 0.12416,-0.0729 -0.30162,0.0756 -0.38717,0.19138 -0.27357,0.37027 -0.70128,1.95292 -0.77039,2.17884 -1.35003,5.83789 -1.68314,11.84593 -2.80174,17.72827 -1.01448,4.56593 -0.048,2.41367 -7.76308,6.48592 -0.17624,0.093 -0.13732,-0.37462 -0.19076,-0.56661 -0.44475,-1.59758 -0.70344,-3.23854 -1.15763,-4.83408 -1.44737,-5.46043 -2.8136,-10.97403 -4.9356,-16.22039 -0.3065,-0.54755 -0.55623,-1.13099 -0.9195,-1.64265 -0.17117,-0.24109 -0.89329,-0.40101 -0.6642,-0.58795 1.92129,-1.56775 4.18486,-2.66152 6.27729,-3.99228 -0.0952,0.14889 -0.23627,0.27699 -0.28569,0.44668 -0.11868,0.4074 -0.0863,1.45299 -0.0868,1.8269 0.007,2.07287 0.0253,4.14639 -0.0328,6.21872 -0.0942,2.13838 -0.27138,4.28584 -0.94866,6.3318 -0.92136,3.0151 -1.98328,5.96389 -3.39144,8.79256 -0.16583,0.35446 -0.17666,0.83931 -0.49749,1.06338 -2.39492,1.67261 -7.11878,6.21665 -8.0559,3.44988 -0.11371,-0.33573 -0.2157,-1.65768 -0.24217,-1.93606 -0.2711,-2.22726 -0.65988,-4.43533 -1.15438,-6.6241 -0.23874,-1.36835 -0.51656,-2.73882 -0.93825,-4.06298 -0.22055,-1.01013 -0.60229,-1.97754 -0.69856,-3.01464 -0.26821,-1.41069 -0.34601,-2.83809 -0.58858,-4.25376 -0.2917,-1.52517 -0.58456,-3.04911 -0.9198,-4.56573 -0.30519,-1.92606 -0.81043,-3.80683 -1.227994,-5.7103 -0.296158,-1.56597 -0.585996,-3.13369 -0.998945,-4.67432 -0.352321,-1.9661 -0.777332,-3.91788 -1.037865,-5.90033 -0.173945,-1.87566 -0.21926,-3.74828 -0.185639,-5.63236 0.003,-1.70771 -0.0092,-3.41558 0.01614,-5.12315 0.06002,-2.03232 0.139097,-4.0661 0.384064,-6.08613 0.271468,-2.24803 0.559477,-4.49463 0.68892,-6.75671 -0.0019,-1.88269 -0.0055,-3.76538 -0.0082,-5.64808 0.0013,-1.37079 0.01085,-2.74163 0.0019,-4.11241 -0.05939,-2.51941 -0.315979,-5.0264 -0.719506,-7.51442 -1.058571,-6.70081 -2.396307,-13.36457 -3.039964,-20.12426 -0.28616,-2.30754 -0.554429,-4.59253 -1.01242,-6.87126 -0.03724,-0.1853 -0.269875,-0.45506 -0.11021,-0.5562 2.279706,-1.44412 4.707768,-2.64194 7.107509,-3.87636 0.0657,-0.0338 -0.002,0.14764 -0.002,0.22146 0.0275,1.7219 0.18146,3.44335 0.54704,5.12874 0.61789,2.54539 1.43146,5.02483 2.65827,7.35049 1.60544,3.08742 3.0476,6.31996 5.49486,8.85705 2.34558,2.53373 4.18367,4.68381 5.14229,8.11231 1.81038,6.57803 2.76631,13.34925 4.43056,19.96382 0.78638,2.90801 1.37256,5.31156 2.3734,8.13789 0.29634,0.83683 0.59021,1.68335 1.01957,2.46037 0.13199,0.23886 0.83933,0.34935 0.62934,0.52365 -1.91036,1.58561 -3.98068,3.02026 -6.21157,4.10966 -0.32084,0.15667 -0.007,-0.71406 -0.0109,-1.07109 -0.89877,-6.04485 -1.98698,-12.06097 -2.74367,-18.12727 -0.61753,-4.86451 -1.18956,-9.73727 -2.11521,-14.55593 -0.21876,-1.13878 -1.41535,-2.45227 -0.74459,-3.3982 3.93558,-5.55013 9.49458,-4.42263 6.368,-5.01378 -0.0484,1.86303 0.40225,3.71883 0.22848,5.58929 -0.0447,1.982 -0.10408,3.96556 -0.37744,5.9323 -0.37015,2.68043 -0.80106,5.35099 -0.96464,8.05636 -0.31059,5.19548 0.23789,10.36527 1.18668,15.4772 1.66987,9.25782 3.26929,18.60167 6.29001,27.53135 0.37295,0.72117 1.63373,1.53576 1.11884,2.16352 -1.57829,1.92428 -4.17888,2.70452 -6.24707,4.08889 -0.14127,0.0946 0.37775,-0.0687 0.46182,-0.21642 0.33865,-0.59521 -0.0573,-1.97223 0.0944,-2.62919 0.005,-2.16782 0.0197,-4.3359 -0.0166,-6.50355 -0.0581,-2.42516 -0.11911,-4.85148 -0.33363,-7.26913 -0.15276,-1.75154 -0.22889,-3.49901 -0.2483,-5.25721 -0.0691,-1.30327 -0.22374,-2.5981 -0.50668,-3.87391 -0.37327,-1.90583 -0.60092,-3.82184 -0.50028,-5.76921 -0.004,-1.91045 -0.0136,-3.82091 -0.007,-5.73136 -0.002,-1.99354 0.003,-3.98721 0.0297,-5.98058 0.0312,-1.30224 -0.0281,-2.66276 0.40579,-3.90742 0.36521,-0.81297 0.69816,-1.64844 0.6422,-2.56414 -0.0269,-1.53215 -0.15827,-3.0611 -0.60103,-4.53733 -0.88363,-2.81197 -2.2896,-5.38045 -3.76931,-7.92145 -0.40639,-0.8346 -0.90052,-1.76525 -1.18857,-2.65883 -0.39129,-1.21386 -0.34692,-2.47499 -0.32849,-3.73114 0.0327,-2.89532 0.13395,-5.78954 0.16233,-8.68498 0.0902,-6.46812 0.13549,-12.93847 0.006,-19.40636 -0.1751,-4.79307 -0.27414,-9.66369 -1.66117,-14.29504 2.30056,-1.36901 4.55416,-2.82019 6.90168,-4.10701 0.0859,-0.0471 0.0497,0.18951 0.0703,0.28524 0.13516,0.62761 0.2084,0.96246 0.21538,1.64963 0.009,0.91306 -0.14742,2.1885 -0.23262,3.05368 -1.55106,10.24246 -3.36065,20.44523 -4.74472,30.71317 -1.08076,8.5903 -1.24499,9.20219 -1.97917,17.74769 -0.22362,2.6028 -0.39884,5.2096 -0.5761,7.81597 -0.12713,1.8693 0.67928,4.03674 -0.33706,5.61076 -1.65623,2.56501 -4.56172,4.07993 -7.05665,5.83996 -0.21706,0.15312 -0.0676,-0.52696 -0.10132,-0.79044 -0.79176,-3.2828 -1.41883,-6.60164 -1.10474,-9.99732 0.10455,-2.44285 0.338,-4.88074 0.2914,-7.32682 -0.0102,-1.99259 -0.0221,-3.98606 -0.12266,-5.97659 -0.13149,-2.35015 -0.38457,-4.69547 -0.38244,-7.05083 -0.0852,-3.92602 -0.30402,-7.86412 -1.16077,-11.70946 -0.8604,-3.51088 -1.806638,-7.14672 -4.087891,-10.03686 -0.445542,-0.50529 -0.729567,-0.88442 -1.264415,-1.28705 -0.168547,-0.12689 -0.345588,-0.25369 -0.545618,-0.32073 -0.10523,-0.0353 -0.42532,0.0865 -0.331885,0.0266 7.545169,-4.83656 8.312789,-5.49365 6.147449,-3.70254 -0.54581,1.59455 0.17642,3.40146 0.30463,5.01909 0.29111,1.67776 0.50025,3.36934 0.69151,5.06078 0.34422,2.26108 0.83376,4.49747 1.25654,6.74422 0.5765,2.52425 0.97965,5.08482 1.42147,7.6352 0.54794,3.04197 0.97959,6.12844 2.05331,9.04302 0.94744,2.49201 2.10561,4.95498 2.48676,7.6152 0.005,1.74425 -0.002,3.48847 -0.005,5.23272 0.008,1.59418 0.0218,3.1883 0.0431,4.78236 1e-4,1.0704 0.007,2.14414 -0.1104,3.20963 -0.19612,1.37902 -0.63536,2.68247 -1.15902,3.97145 -0.60374,2.26983 -1.19914,4.54102 -1.77059,6.81923 -0.34439,1.53056 -0.75919,3.06741 -0.98514,4.6213 -0.30955,2.12884 -0.23754,4.27353 -0.15464,6.41574 0.52659,6.31064 1.50739,12.59145 3.645,18.58115 1.03438,2.33147 1.14713,3.039 2.66997,4.94093 1.35461,1.69181 3.34114,2.80977 5.19632,3.84811 3.38289,1.12861 1.21624,0.10068 -5.06915,4.21145 -0.14179,0.0927 0.3554,-0.0474 0.4827,-0.15916 0.49516,-0.43487 0.30953,-1.3281 0.35095,-1.8804 7.9e-4,-1.37423 -0.006,-2.74846 -0.0103,-4.12268 0.004,-1.2554 0.0124,-2.51091 -0.008,-3.76621 -0.0363,-1.61662 -0.0794,-3.24283 -0.37173,-4.8374 -0.31528,-1.409 -0.44286,-2.84488 -0.78226,-4.25071 -0.4721,-1.98159 -0.95156,-3.96182 -1.27099,-5.97545 -0.30015,-2.24322 -0.63592,-4.48596 -1.08244,-6.70451 -0.58825,-2.6341 -1.20181,-5.26243 -1.74513,-7.90597 -0.42933,-2.19119 -0.68339,-4.40301 -0.59248,-6.64052 -0.005,-1.76298 -0.0156,-3.52596 -0.0136,-5.28895 -0.005,-1.46387 -0.004,-2.92775 -0.0162,-4.39158 0.005,-1.35833 0.0134,-2.71663 0.0179,-4.07495 5.3e-4,-1.47062 -0.0104,-2.94123 -0.0204,-4.41181 0.003,-1.26489 0.009,-2.52977 0.0208,-3.7946 0.0165,-1.98525 0.0245,-3.97048 0.0215,-5.9558 0.002,-1.95678 0.007,-3.91358 -0.002,-5.87035 -0.014,-1.43672 1.9e-4,-2.88615 -0.2659,-4.30387 -0.50139,-2.31497 -1.29862,-4.55785 -2.04196,-6.80264 -1.34931,-3.51552 -2.78062,-6.99668 -4.341246,-10.42449 0,0 6.893576,-3.88374 6.893576,-3.88374 z"
       inkscape:connector-curvature="0" />
    <path
       style="fill:#00d300;fill-opacity:1;stroke:#00fc00;stroke-width:1.56500006;stroke-miterlimit:4;stroke-dasharray:none;stroke-opacity:1"
       id="path859"
       d="m 100.52427,242.94448 c -1.994369,1.49679 -3.620371,3.42088 -5.198865,5.33504 -1.849064,2.14994 -3.797713,4.21125 -5.690116,6.32336 -0.970515,1.10251 -1.985134,2.17619 -2.851552,3.36429 0.05102,-0.27802 1.538221,-0.13927 1.813515,-0.14098 1.330455,0.13903 2.378726,-0.51825 3.535159,-1.0793 2.91026,-1.37489 11.384329,-6.31341 -0.618374,0.58658 0.259959,-0.16816 0.522566,-0.3323 0.779875,-0.50448 0.318151,-0.2129 0.904209,-0.62278 1.215218,-0.87708 0.116219,-0.095 0.465609,-0.36968 0.328901,-0.30766 -1.483434,-0.23294 -2.879394,0.21706 -4.2697,0.68789 -0.992436,0.37018 -1.961975,0.81032 -2.914216,1.274 -0.399119,0.19434 -1.033592,0.56819 -1.068258,0.53848 -0.252989,-0.21684 -0.317143,-0.58609 -0.475713,-0.87914 0.481539,-0.83736 0.08943,-0.25795 0.901547,-1.11924 2.66732,-2.82883 2.440323,-2.80186 8.295314,-5.49902 0.251717,-0.11596 0.301218,0.46529 0.451824,0.69794 -0.04998,0.29856 -0.04847,0.61048 -0.149934,0.89569 -0.531945,1.49531 -2.957661,3.91813 -4.087014,5.15037 -2.412772,2.26511 -2.249043,2.20497 -7.776543,4.56421 -0.263517,0.11247 -0.348662,-0.47745 -0.404347,-0.75851 -0.120348,-0.60744 0.497822,-1.42098 0.769456,-1.90312 1.803974,-2.98183 2.256785,-2.79002 7.648139,-5.24041 0.49766,-0.22619 0.790135,2.23973 0.806518,2.37906 0.105699,0.36894 0.02225,1.64598 0.68057,1.69929 0.560752,0.0454 2.611813,-0.87457 3.040081,-1.06121 2.364097,-1.05616 4.729025,-2.1221 7.247885,-2.75 1.3855,-0.28222 2.3381,0.63953 3.46057,1.25764 0.16642,0.10135 0.30579,0.2809 0.49926,0.30405 0.30995,0.0371 0.62001,-0.0765 0.92694,-0.13343 0.55594,-0.10315 1.1097,-0.21884 1.6605,-0.34662 2.72822,-0.63291 5.31528,-1.60675 7.94824,-2.54969 2.31914,-0.60145 7.23786,-3.16158 9.62577,-2.43499 0.29786,0.0906 0.54156,0.30732 0.81234,0.46098 0.63845,0.64118 0.90627,1.40594 1.09385,2.26707 0.0673,0.30894 0.33905,1.19803 0.16488,0.93413 -0.082,-0.12425 -0.084,-0.28566 -0.12595,-0.42849 -2.23169,1.18505 -4.42999,2.43524 -6.69508,3.55515 -0.1367,0.0676 0.13232,-0.29523 0.26246,-0.37472 2.31301,-1.41273 4.57263,-2.94337 7.03265,-4.08097 0.27841,-0.12875 0.86141,1.73087 0.90748,1.87454 0.10588,0.58542 0.42183,0.68224 0.8256,1.01129 0.1873,0.15265 0.49311,0.46998 0.65896,0.6369 0.48353,0.50275 0.23168,0.26727 0.75404,0.70803 0,0 -6.73085,4.18917 -6.73085,4.18917 v 0 c -0.54907,-0.49101 -0.28714,-0.24458 -0.78748,-0.7375 -0.65465,-0.60915 -1.46046,-1.04905 -1.65092,-1.9988 -0.19378,-0.59256 -0.13413,-0.48521 -0.37052,-0.97417 -0.0218,-0.0451 0.0143,0.16387 0.0577,0.13883 2.21584,-1.27857 4.3413,-2.71121 6.57177,-3.9641 0.13635,-0.0766 -0.15752,0.27024 -0.23627,0.40537 -2.3834,1.39874 -4.7668,2.79748 -7.15019,4.19622 -0.12832,-0.1582 -0.29535,-0.29168 -0.38495,-0.47461 -0.0464,-0.0948 0.004,-0.21122 -0.003,-0.31651 -0.0522,-0.81099 -0.16405,-1.64 -0.77845,-2.22717 -0.20218,-0.078 -0.39261,-0.19937 -0.60652,-0.23402 -0.74256,-0.12029 -1.62087,0.0617 -2.31809,0.23339 -2.33332,0.5745 -4.56313,1.51195 -6.84423,2.24959 -1.44433,0.51231 -4.33692,1.5609 -5.81173,1.99415 -0.78527,0.23069 -1.58229,0.42249 -2.38336,0.5903 -1.18826,0.24893 -2.48496,0.57393 -3.568342,-0.15501 -1.01097,-0.59774 -1.837092,-1.1814 -3.062878,-0.78543 -2.451335,0.69601 -4.767275,1.75454 -7.106629,2.75283 -2.492319,0.87802 -4.192378,1.43504 -4.59582,-1.77186 -0.03007,-0.25584 -0.05298,-0.51263 -0.09019,-0.76753 -0.02326,-0.15918 -0.115575,-0.31495 -0.09108,-0.47395 0.01175,-0.0763 0.06795,0.22611 0.135118,0.18806 2.203008,-1.24782 4.29378,-2.68673 6.492515,-3.94207 0.353711,-0.20194 -1.284378,1.29215 -0.692637,1.00664 -0.116734,0.16989 -0.804042,1.38697 -0.940448,1.36212 -0.161893,-0.0295 -0.196152,-0.42942 -0.342961,-0.35509 -3.993917,2.02233 -8.80545,5.46435 -5.737402,3.28896 1.170051,-1.20382 2.67145,-2.71797 3.635753,-4.06931 0.179321,-0.2513 0.266417,-0.56276 0.457364,-0.80535 0.09635,-0.1224 0.256696,-0.17657 0.385043,-0.26486 1.917713,2.25874 0.0391,0.28495 6.69199,-3.45608 0.238199,-0.13394 -0.41383,0.35876 -0.599136,0.55961 -0.223716,0.24249 -0.861822,1.11427 -1.151403,1.3547 -0.105677,0.0877 -0.253029,0.10698 -0.379542,0.16047 -0.181325,-0.22896 -0.457309,-0.40796 -0.543973,-0.68688 -0.03153,-0.10146 0.192109,-0.0908 0.288301,-0.13596 0.233317,-0.10945 0.465672,-0.22099 0.700227,-0.32776 0.970701,-0.44186 1.949035,-0.87394 2.967763,-1.19511 1.570781,-0.44921 3.376869,-0.97092 4.869247,-0.0335 0.23754,0.31896 0.53698,0.5748 0.46473,1.02932 -0.15454,0.97214 -1.712257,1.36247 -2.274441,1.99299 -4.237938,2.4444 -8.432673,4.98821 -12.843653,7.11722 -1.254549,0.57292 -2.410365,0.9974 -3.810725,0.84572 -0.986446,-0.0196 -2.039464,0.0396 -2.536264,-0.97914 -0.0083,-0.14231 -0.0552,-0.28768 -0.02474,-0.42693 0.19516,-0.89215 2.30259,-2.65971 2.837903,-3.45649 1.898763,-2.09738 3.809806,-4.18243 5.702614,-6.28461 1.540738,-1.93374 3.164475,-3.81628 4.997,-5.48106 0,0 7.371496,-2.9117 7.371496,-2.9117 z"
       inkscape:connector-curvature="0" />
    <path
       style="fill:#00d300;fill-opacity:1;stroke:#00fc00;stroke-width:1.56500006;stroke-miterlimit:4;stroke-dasharray:none;stroke-opacity:1"
       id="path861"
       d="m 136.32908,261.91347 c -1.36594,-0.0604 -2.85196,-0.0877 -4.09906,-0.7283 -0.3296,-0.1693 -0.6269,-0.39521 -0.94035,-0.59282 -1.06122,-0.77949 -2.51504,-1.30303 -3.08211,-2.60184 -0.45458,-1.04115 -0.35226,-1.65613 -0.37349,-2.7685 0.11461,-1.36568 0.41879,-2.69531 0.8164,-4.00274 0.0799,-0.2626 0.17149,-0.52148 0.25605,-0.7826 0.0402,-0.12414 1.1e-4,-0.3177 0.11821,-0.37319 2.3259,-1.0928 4.73007,-2.01061 7.09511,-3.01591 -1.5841,3.34613 -0.33955,2.12671 -7.70133,4.01618 -0.31317,0.0804 0.21034,-0.61215 0.33882,-0.90885 0.12922,-0.29838 0.28883,-0.58265 0.43324,-0.87399 0.16151,-0.237 0.29683,-0.49416 0.48451,-0.71103 0.16175,-0.18689 0.33906,-0.37197 0.55573,-0.49092 2.45569,-1.34829 4.89755,-2.73366 7.44408,-3.90134 0.19359,-0.0888 0.42123,0.10036 0.6029,0.2115 0.44402,0.27165 0.60856,0.61547 0.88376,1.02939 0.005,0.007 0.28296,0.72165 0.57387,0.54116 0.16112,-0.1 0.51845,-0.5348 0.34944,-0.44884 -2.08552,1.06074 -4.07171,2.30806 -6.14332,3.39573 -0.23576,0.12379 0.38977,-0.37241 0.6245,-0.49814 2.40844,-1.29019 4.86155,-2.49521 7.29232,-3.74282 0.10246,0.46256 0.31185,0.91393 0.30735,1.38767 -0.009,0.90935 -0.86856,3.62336 -1.04733,4.24267 -0.68409,2.36978 -1.35303,4.74318 -2.0221,7.11722 -1.12643,3.0501 -0.67786,2.64233 -7.30394,3.4041 -0.58563,0.0673 0.39252,-1.11195 0.60704,-1.66102 0.65109,-1.66648 1.36619,-3.31278 2.09198,-4.94778 1.68219,-3.54788 2.48973,-3.22173 8.19248,-5.39008 0.38234,-0.14538 0.72585,2.37133 0.74717,2.52848 0.3511,0.12845 -0.1056,0.86568 0.18158,1.1032 0.07,0.0579 -0.0359,-0.18531 -0.01,-0.27235 0.0138,-0.0461 0.0821,-0.11856 0.11667,-0.0851 0.33672,0.32629 0.40493,0.69153 0.54484,1.11079 0.17588,0.6379 0.14831,1.31033 0.2828,1.95436 0.0115,0.0552 0.0751,0.20966 0.0711,0.15344 -0.008,-0.10829 -0.0551,-0.21003 -0.0827,-0.31505 -0.004,-0.10826 -0.008,-0.21652 -0.0114,-0.32479 -2.19422,1.26711 -8.86587,4.90003 -6.58267,3.80132 5.2059,-2.50516 4.63143,-4.27604 7.87708,-4.04816 0,0 -6.40615,4.7274 -6.40615,4.7274 v 0 c -0.1917,0.0487 -0.72346,0.31614 -0.55226,0.21707 0.18293,-0.10587 18.11137,-10.46864 -0.5451,0.32388 -1.10254,-0.42083 -0.79147,-1.71475 -1.01133,-2.67296 -0.20054,-0.72374 0.10477,-0.0171 -0.33063,-0.38756 -0.51636,-0.43937 -0.47893,-0.98869 -0.50957,-1.62171 -0.0774,-0.63253 -0.0839,-0.88631 -0.24019,-1.47855 -0.0171,-0.0648 -0.13863,-0.14821 -0.0818,-0.1837 2.15542,-1.34543 4.37966,-2.57733 6.56949,-3.866 -0.18476,0.13377 -0.41447,0.22107 -0.55428,0.4013 -0.25946,0.33446 -0.41183,0.73968 -0.61775,1.10952 -0.77015,1.60814 -1.4679,3.24048 -2.12539,4.89841 -0.19456,0.49061 -0.13749,1.16661 -0.56196,1.48027 -2.26217,1.67159 -4.74144,3.0486 -7.2605,4.29999 -0.3387,0.16825 0.38285,-0.65232 0.57428,-0.97848 0.99802,-3.12787 1.95355,-6.29213 2.7051,-9.48976 0.11959,-0.50879 0.17116,-1.03279 0.30492,-1.53804 0.0376,-0.14197 0.13696,-0.25984 0.20544,-0.38976 2.16458,-1.27369 4.30035,-2.59768 6.49375,-3.82105 0.23675,-0.13205 -0.37762,0.39774 -0.60907,0.53886 -2.4556,1.49727 -4.89001,3.0394 -7.44025,4.36909 -0.66066,0.34446 -1.25593,-0.49352 -1.49734,-0.92863 -0.17033,-0.23771 -0.23978,-0.44278 -0.55356,-0.50673 -0.13801,-0.0281 -0.54143,0.0889 -0.42232,0.0138 2.04688,-1.29166 4.19756,-2.41301 6.25205,-3.69253 0.20398,-0.12703 -0.48418,0.093 -0.6848,0.2253 -0.22624,0.14916 -0.3708,0.39527 -0.5562,0.5929 -0.1568,0.26064 -0.33298,0.51056 -0.4704,0.78191 -0.13021,0.25712 -0.0824,0.65199 -0.33024,0.79906 -2.38809,1.41701 -4.95984,2.49947 -7.41504,3.79674 -0.0678,0.0358 0.18103,0.0587 0.22996,-2.6e-4 0.25133,-0.30306 0.23571,-0.77096 0.51252,-1.06415 2.45177,-1.21433 4.86598,-2.50765 7.35532,-3.64299 0.12878,-0.0587 -0.13633,0.2484 -0.19492,0.37725 -0.66104,1.45381 -1.06825,2.99082 -1.27414,4.57434 -0.0269,0.86302 -0.15364,1.49487 0.19683,2.30758 0.50109,1.16201 1.97269,1.61008 2.89334,2.32459 1.64936,0.85538 3.04252,0.9935 4.88008,0.9302 0,0 -6.41727,4.66241 -6.41727,4.66241 z"
       inkscape:connector-curvature="0" />
  </g>
</svg>
